<svg id="Слой_1" data-name="Слой 1" xmlns="http://www.w3.org/2000/svg" xmlns:xlink="http://www.w3.org/1999/xlink" viewBox="0 0 20 20"><defs><style>.cls-1{fill:none;}.cls-2{clip-path:url(#clip-path);}</style><clipPath id="clip-path" transform="translate(0 0)"><rect class="cls-1" width="20" height="20"/></clipPath></defs><title>icon--globus-white</title><g class="cls-2"><path fill="#ffffff" d="M17.88,3.86A10,10,0,1,0,20,10a10,10,0,0,0-2.12-6.14M3.5,5.35A8,8,0,0,1,4.75,8c-.88.15-1.75.34-2.62.57A7.94,7.94,0,0,1,3.5,5.35M2,10.71A29,29,0,0,1,5,10a8,8,0,0,1-1.5,4.62A7.94,7.94,0,0,1,2,10.71m7,7.22a8,8,0,0,1-4.12-1.79A9.94,9.94,0,0,0,7,10c0-.08,0-.17,0-.25.67-.07,1.34-.11,2-.14ZM9,7.61q-1.13,0-2.26.15A10,10,0,0,0,4.88,3.86,8,8,0,0,1,9,2.07Zm7.5-2.26a7.94,7.94,0,0,1,1.37,3.25C17,8.38,16.13,8.19,15.25,8A8,8,0,0,1,16.5,5.35M11,2.07a8,8,0,0,1,4.12,1.79,9.94,9.94,0,0,0-1.86,3.91Q12.13,7.65,11,7.61Zm0,15.86V9.61c.67,0,1.34.07,2,.14,0,.08,0,.17,0,.25a9.94,9.94,0,0,0,2.12,6.14A8,8,0,0,1,11,17.93m5.5-3.28A8,8,0,0,1,15,10a29,29,0,0,1,3,.69,7.94,7.94,0,0,1-1.46,3.94" transform="translate(0 0)"/></g></svg>