<svg id="Слой_1" data-name="Слой 1" xmlns="http://www.w3.org/2000/svg" xmlns:xlink="http://www.w3.org/1999/xlink" viewBox="0 0 20.07 20.09"><defs><style>.cls-1{fill:#c12934;}.cls-2{clip-path:url(#clip-path);}</style><clipPath id="clip-path" transform="translate(0 0)"><rect class="cls-1" width="20.07" height="20.09"/></clipPath></defs><title>icon--key</title><g class="cls-2"><path fill="#c12934" d="M14.07,0A6,6,0,0,0,9.2,9.48L0,18.68l1.41,1.41,1.43-1.43,1.39,1.39,1.41-1.41L4.25,17.25l2-2,1.41,1.41,1.41-1.41L7.65,13.86l3-3A6,6,0,1,0,14.07,0m0,10a4,4,0,1,1,4-4,4,4,0,0,1-4,4" transform="translate(0 0)"/></g></svg>