<svg id="Слой_1" data-name="Слой 1" xmlns="http://www.w3.org/2000/svg" xmlns:xlink="http://www.w3.org/1999/xlink" viewBox="0 0 20 20"><defs><style>.cls-1{fill:none;}.cls-2{clip-path:url(#clip-path);}</style><clipPath id="clip-path"><rect class="cls-1" width="20" height="20"/></clipPath></defs><title>icon--pdf</title><g class="cls-2"><path d="M20,12v2H16v2h4v2H16v2H14V12Zm-7,3v2a3,3,0,0,1-3,3H7V12h3a3,3,0,0,1,3,3m-2,.1A1.1,1.1,0,0,0,10,14H9v4h1a.92.92,0,0,0,1-.9ZM6,15a3,3,0,0,1-3,3H2v2H0V12H3a3,3,0,0,1,3,3m-2,.1a1,1,0,0,0-1-1H2v2H3a1,1,0,0,0,1-1M14,0H0V10H2V2H12V8h6v2h2V6.44Z"/></g></svg>