<svg id="Слой_1" data-name="Слой 1" xmlns="http://www.w3.org/2000/svg" xmlns:xlink="http://www.w3.org/1999/xlink" viewBox="0 0 20.03 20"><defs><style>.cls-1{fill:none;}.cls-2{clip-path:url(#clip-path);}</style><clipPath id="clip-path"><rect class="cls-1" width="20.03" height="20"/></clipPath></defs><title>icon--calendar</title><g class="cls-2"><path d="M.06,17.76A2.27,2.27,0,0,0,2.13,20h16A2.07,2.07,0,0,0,20,17.76c0-.39,0-12.4,0-13.05C20,2.63,19.72,2,16,2V0H14V2H6V0H4V2H2A2,2,0,0,0,0,4ZM18,17a1,1,0,0,1-1,1H3a1,1,0,0,1-1-1V10H18Zm0-9H2V5A1,1,0,0,1,3,4H4V6H6V4h8V6h2V4h1a1,1,0,0,1,1,1Z"/></g></svg>