<svg id="Слой_1" data-name="Слой 1" xmlns="http://www.w3.org/2000/svg" xmlns:xlink="http://www.w3.org/1999/xlink" viewBox="0 0 20 20"><defs><style>.cls-1{fill:none;}.cls-2{clip-path:url(#clip-path);}</style><clipPath id="clip-path"><rect class="cls-1" width="20" height="20"/></clipPath></defs><title>icon--doc</title><g class="cls-2"><path d="M18,12h2v2H18a2,2,0,0,0,0,4h2v2H18a4,4,0,0,1,0-8M6,15v2a3,3,0,0,1-3,3H0V12H3a3,3,0,0,1,3,3m-2,.1A1.1,1.1,0,0,0,3,14H2v4H3a.92.92,0,0,0,1-.9ZM7,18V14a2,2,0,0,1,2-2h2a2,2,0,0,1,2,2v4a2,2,0,0,1-2,2H9a2,2,0,0,1-2-2m2-3v2a1,1,0,0,0,2,0V15a1,1,0,0,0-2,0M14,0H0V10H2V2H12V8h6v2h2V6.44Z"/></g></svg>