<svg xmlns="http://www.w3.org/2000/svg" xmlns:xlink="http://www.w3.org/1999/xlink" viewBox="0 0 20.08 14.04"><defs><style>.cls-1{fill:none;}.cls-2{clip-path:url(#clip-path);}</style><clipPath id="clip-path" transform="translate(0)"><rect class="cls-1" width="20.08" height="14.04"/></clipPath></defs><title>Ресурс 1</title><g id="Слой_2" data-name="Слой 2"><g id="Слой_1-2" data-name="Слой 1"><g class="cls-2"><path fill="rgba(255,255,255,0.5)" d="M19.17,1.19A2.61,2.61,0,0,0,17.61.26,109.69,109.69,0,0,0,2.45.26,2.67,2.67,0,0,0,1.12.94C-.5,2.44,0,10.48.39,11.78A2.85,2.85,0,0,0,1,13a2.59,2.59,0,0,0,1.36.7,95.74,95.74,0,0,0,15.18,0A2.64,2.64,0,0,0,19,13.06c1.5-1.49,1.39-10,.2-11.87M8,9.61V4c2,.94,3.55,1.85,5.38,2.83C11.89,7.65,10,8.59,8,9.61" transform="translate(0)"/></g></g></g></svg>