<svg id="Слой_1" data-name="Слой 1" xmlns="http://www.w3.org/2000/svg" xmlns:xlink="http://www.w3.org/1999/xlink" viewBox="0 0 20.02 20"><defs><style>.cls-1{fill:none;}.cls-2{clip-path:url(#clip-path);}</style><clipPath id="clip-path"><rect class="cls-1" width="20.02" height="20"/></clipPath></defs><title>icon--zip</title><g class="cls-2"><path d="M13,12v2H11v4h2v2H7V18H9V14H7V12ZM6,12H0v2H3L0,20H6V18H3Zm14,3a3,3,0,0,1-3,3H16v2H14V12h3a3,3,0,0,1,3,3m-2,.1a1,1,0,0,0-1-1H16v2h1a1,1,0,0,0,1-1M2,2H12V8h6v2h2V6.44L14,0H0V10H2Z"/></g></svg>