<svg id="Слой_1" data-name="Слой 1" xmlns="http://www.w3.org/2000/svg" xmlns:xlink="http://www.w3.org/1999/xlink" viewBox="0 0 20.03 19.98"><defs><style>.cls-1{fill:none;}.cls-2{clip-path:url(#clip-path);}</style><clipPath id="clip-path" transform="translate(0 0)"><rect class="cls-1" width="20.03" height="19.98"/></clipPath></defs><title>Vector Smart Object16</title><g class="cls-2"><path style="fill:#c12934" d="M19.74,11.1a1,1,0,1,0-1.42-1.41l-6.45,6.44a.51.51,0,0,1-.86-.35V1a1,1,0,0,0-1-1h0A1,1,0,0,0,9,1V15.78a.49.49,0,0,1-.85.35L1.7,9.66a1,1,0,0,0-1.41,0h0a1,1,0,0,0,0,1.41L8.62,19.4a2,2,0,0,0,2.83,0l8.29-8.29" transform="translate(0 0)"/></g></svg>