<svg id="Слой_1" data-name="Слой 1" xmlns="http://www.w3.org/2000/svg" xmlns:xlink="http://www.w3.org/1999/xlink" viewBox="0 0 20.1 20.15"><defs><style>.cls-1{fill:none;}.cls-2{clip-path:url(#clip-path);}</style><clipPath id="clip-path" transform="translate(0 0)"><rect class="cls-1" width="20.1" height="20.15"/></clipPath></defs><title>icon--in-white</title><g class="cls-2"><path fill="#ffffff" d="M6.69,10.06A3.33,3.33,0,1,1,10,13.4a3.33,3.33,0,0,1-3.33-3.33m-1.8,0A5.13,5.13,0,1,0,10,4.93a5.13,5.13,0,0,0-5.13,5.13m9.27-5.34a1.2,1.2,0,1,0,1.2-1.2,1.2,1.2,0,0,0-1.2,1.2M6,18.2a5.49,5.49,0,0,1-1.86-.34A3.27,3.27,0,0,1,2.23,16c-.6-1.53-.4-8.77-.34-9.94A4.28,4.28,0,0,1,3,3C4,2,5.27,1.52,14.06,1.92a4.28,4.28,0,0,1,3,1.09c1,1,1.5,2.3,1.09,11.09A5.53,5.53,0,0,1,17.82,16c-.91,2.32-3,2.65-11.84,2.24M5.9.12A6,6,0,0,0,1.7,1.74,6,6,0,0,0,.08,5.94c0,1-.32,8.67.46,10.67a5.08,5.08,0,0,0,2.93,2.93A7.34,7.34,0,0,0,5.9,20c8.9.4,12.21.18,13.6-3.39A7.33,7.33,0,0,0,20,14.19c.41-8.95-.07-10.89-1.62-12.44C17.11.51,15.66-.33,5.9.12" transform="translate(0 0)"/></g></svg>