<svg id="Слой_1" data-name="Слой 1" xmlns="http://www.w3.org/2000/svg" xmlns:xlink="http://www.w3.org/1999/xlink" viewBox="0 0 73.55 73.55"><defs><style>.cls-1{fill:none;}.cls-2{clip-path:url(#clip-path);}.cls-3{fill:#c12934;}.cls-3,.cls-4,.cls-6{fill-rule:evenodd;}.cls-4{fill:#6d6e70;}.cls-5,.cls-6{fill:#fff;}</style><clipPath id="clip-path" transform="translate(0 0)"><rect class="cls-1" width="231.24" height="73.55"/></clipPath></defs><title>logo--header</title><g class="cls-2"><path class="cls-3" d="M36.37,73.55h.13a36.44,36.44,0,1,0-.13,0" transform="translate(0 0)"/><rect class="cls-5" x="34.96" y="24.09" width="2.96" height="49.46"/><path class="cls-6" d="M37.05,33.21a1.06,1.06,0,0,1-1.22,1.72L22.45,25.36a1.05,1.05,0,0,1,1.22-1.72Z" transform="translate(0 0)"/><path class="cls-6" d="M36.79,46.09a1.06,1.06,0,1,1-.7,2L18.42,41.82a1.06,1.06,0,0,1,.7-2Z" transform="translate(0 0)"/><path class="cls-6" d="M36.91,46.67A1.05,1.05,0,0,1,36,44.79l22.7-11.41a1.05,1.05,0,0,1,.94,1.89Z" transform="translate(0 0)"/><path class="cls-6" d="M36.93,60.53a1.05,1.05,0,0,1-1-1.86l11.9-6.38a1.05,1.05,0,0,1,1,1.86Z" transform="translate(0 0)"/><path class="cls-6" d="M36.79,61.3a1.06,1.06,0,1,1-.69,2L26.65,60a1.06,1.06,0,0,1,.69-2Z" transform="translate(0 0)"/><path class="cls-6" d="M37.07,32.67a1.06,1.06,0,0,1-1.37-1.6L48.83,19.77a1.06,1.06,0,1,1,1.37,1.6Z" transform="translate(0 0)"/><polygon class="cls-6" points="57.12 27.72 56.98 27.1 58.21 26.81 58.35 27.42 59.44 31.96 61.79 23.83 61.97 23.23 63.19 23.58 63.01 24.19 59.99 34.62 58.76 34.59 57.12 27.72"/><polygon class="cls-6" points="50.39 10.28 50.21 19.52 55.1 15.07 55.96 16.01 49.97 21.44 48.88 22.43 48.91 20.96 49.13 10.26 50.39 10.28"/><polygon class="cls-6" points="13.88 37.96 19.27 40.16 18.64 41.73 13.24 39.52 13.88 37.96"/><polygon class="cls-6" points="17.13 24.12 22.46 24.22 17.04 13.5 18.17 12.93 24.06 24.59 24.54 25.52 23.49 25.5 17.11 25.38 17.13 24.12"/><rect class="cls-5" x="25.19" y="20.7" width="1.27" height="5.89"/><polygon class="cls-6" points="23.09 28.92 28 27.57 28.33 28.8 23.42 30.14 23.09 28.92"/><polygon class="cls-6" points="4.89 39.21 12.41 38.26 4.87 29.83 5.81 28.99 14.15 38.32 14.96 39.21 13.76 39.36 5.05 40.47 4.89 39.21"/><polygon class="cls-6" points="13.43 42.29 19.24 41.02 15.49 35.66 16.53 34.94 20.83 41.07 21.37 41.85 20.44 42.06 13.69 43.53 13.43 42.29"/><rect class="cls-5" x="19.25" y="44.49" width="6.16" height="1.27" transform="translate(-25.59 29.68) rotate(-45.81)"/><polygon class="cls-6" points="16.37 60.7 25.01 58.79 22.27 57.6 22.77 56.44 27.31 58.41 29.1 59.18 27.19 59.6 16.64 61.94 16.37 60.7"/><polygon class="cls-6" points="30.49 54.9 31.97 60.42 32.3 61.66 31.11 61.16 29.14 60.33 26.36 62.66 25.55 61.69 28.61 59.12 28.91 58.87 29.27 59.02 30.41 59.5 29.27 55.22 30.49 54.9"/><rect class="cls-5" x="38.5" y="40.56" width="6.21" height="1.27" transform="translate(-14.77 57) rotate(-60.38)"/><polygon class="cls-6" points="32.08 13.51 35.84 25.28 37.19 5.84 38.45 5.92 36.89 28.71 36.68 32.07 35.66 28.87 30.87 13.89 32.08 13.51"/><rect class="cls-5" x="34.32" y="22.4" width="9.53" height="1.26" transform="translate(-2.03 42.19) rotate(-55.49)"/><polygon class="cls-6" points="65.77 31.44 55.89 36.7 66.61 39.6 66.29 40.82 54.02 37.51 52.47 37.09 53.88 36.34 65.17 30.33 65.77 31.44"/><polygon class="cls-6" points="52.38 48.03 49.54 52.55 64.17 50.75 64.32 52.01 48.37 53.97 47.04 54.14 47.75 53.01 51.31 47.36 52.38 48.03"/><polygon class="cls-6" points="43.97 51.23 41.64 57.37 40.46 56.92 42.79 50.79 43.97 51.23"/><polygon class="cls-6" points="50.77 60.5 43.77 55.96 44.46 54.9 51.45 59.44 50.77 60.5"/><rect class="cls-5" x="44.96" y="24.05" width="1.27" height="4.22" transform="matrix(0.15, -0.99, 0.99, 0.15, 13.07, 67.46)"/><path class="cls-6" d="M14.66,59.08a2.35,2.35,0,0,1,1.66.69h0a2.35,2.35,0,0,1,0,3.32h0a2.35,2.35,0,0,1-3.32,0h0a2.35,2.35,0,0,1,0-3.32h0a2.35,2.35,0,0,1,1.66-.69m.77,1.59a1.09,1.09,0,0,0-1.53,0h0a1.09,1.09,0,0,0,0,1.53h0a1.09,1.09,0,0,0,1.53,0h0a1.09,1.09,0,0,0,0-1.53Z" transform="translate(0 0)"/><path class="cls-6" d="M20.68,52.46a3,3,0,0,1,2.1.87h0a3,3,0,0,1,0,4.19h0a3,3,0,0,1-4.19,0h0a3,3,0,0,1,0-4.19h0a3,3,0,0,1,2.1-.87m1.2,1.76h0a1.7,1.7,0,0,0-2.4,0h0a1.7,1.7,0,0,0,0,2.4h0a1.7,1.7,0,0,0,2.4,0h0a1.7,1.7,0,0,0,0-2.4" transform="translate(0 0)"/><path class="cls-6" d="M29.45,49.64a3,3,0,0,1,2.14.89h0a3,3,0,0,1,0,4.28h0a3,3,0,0,1-4.28,0h0a3,3,0,0,1,0-4.28h0a3,3,0,0,1,2.14-.89m1.24,1.78a1.76,1.76,0,0,0-2.49,0h0a1.76,1.76,0,0,0,0,2.49h0a1.76,1.76,0,0,0,2.49,0h0a1.76,1.76,0,0,0,0-2.49" transform="translate(0 0)"/><path class="cls-6" d="M24.05,60.81a3.27,3.27,0,0,1,2.31,1h0a3.27,3.27,0,1,1-4.63,4.63h0a3.27,3.27,0,0,1,0-4.63h0a3.27,3.27,0,0,1,2.31-1m1.42,1.85h0a2,2,0,0,0-2.83,0h0a2,2,0,0,0,0,2.84h0a2,2,0,0,0,2.84-2.84" transform="translate(0 0)"/><path class="cls-6" d="M44.24,47.31A2.34,2.34,0,0,1,45.9,48h0a2.34,2.34,0,0,1,0,3.32h0a2.34,2.34,0,0,1-3.32,0h0a2.35,2.35,0,0,1,0-3.32h0a2.35,2.35,0,0,1,1.66-.69M45,48.89a1.09,1.09,0,0,0-1.53,0h0a1.09,1.09,0,0,0,0,1.53h0a1.09,1.09,0,0,0,1.53,0h0a1.09,1.09,0,0,0,0-1.53Z" transform="translate(0 0)"/><path class="cls-6" d="M53.14,42.4a3.14,3.14,0,0,1,2.23.92h0a3.15,3.15,0,1,1-4.45,4.45h0a3.14,3.14,0,0,1,0-4.45h0a3.14,3.14,0,0,1,2.22-.92m1.33,1.82a1.88,1.88,0,0,0-2.66,0h0a1.88,1.88,0,0,0,0,2.66h0a1.88,1.88,0,0,0,2.66-2.66Z" transform="translate(0 0)"/><path class="cls-6" d="M52.65,58.35A2.29,2.29,0,1,1,51,59h0a2.28,2.28,0,0,1,1.62-.67m.72,1.57a1,1,0,0,0-1.44,0h0a1,1,0,1,0,1.45,0" transform="translate(0 0)"/><path class="cls-6" d="M65.84,48.9a2.23,2.23,0,1,1-1.58.65,2.23,2.23,0,0,1,1.58-.65m.68,1.55a1,1,0,1,0,.28.68,1,1,0,0,0-.28-.68" transform="translate(0 0)"/><path class="cls-6" d="M68.17,38a2.35,2.35,0,0,1,1.66.69h0a2.34,2.34,0,0,1,0,3.32h0a2.35,2.35,0,0,1-3.32,0h0a2.34,2.34,0,0,1,0-3.32h0A2.35,2.35,0,0,1,68.17,38m.77,1.58a1.09,1.09,0,0,0-1.53,0h0a1.09,1.09,0,0,0,0,1.53h0a1.09,1.09,0,0,0,1.53,0h0a1.09,1.09,0,0,0,0-1.53Z" transform="translate(0 0)"/><path class="cls-6" d="M67.74,27.43a3,3,0,0,1,2.14.89h0a3,3,0,0,1,0,4.28h0a3,3,0,0,1-4.28,0h0a3,3,0,0,1,2.14-5.16M69,29.21A1.76,1.76,0,0,0,66.5,31.7h0A1.76,1.76,0,1,0,69,29.21Z" transform="translate(0 0)"/><path class="cls-6" d="M57.19,23.38a2.41,2.41,0,0,1,1.71,4.12h0a2.41,2.41,0,1,1-1.71-4.12M58,25a1.15,1.15,0,1,0,.33.81A1.15,1.15,0,0,0,58,25" transform="translate(0 0)"/><path class="cls-6" d="M63.08,20.55a2.17,2.17,0,1,1-1.53.64,2.17,2.17,0,0,1,1.53-.64m.64,1.53a.9.9,0,0,0-1.54.64.9.9,0,0,0,1.54.63.9.9,0,0,0,.26-.63.91.91,0,0,0-.26-.64" transform="translate(0 0)"/><path class="cls-6" d="M49.45,24.36a2.29,2.29,0,0,1,1.62,3.91h0A2.29,2.29,0,1,1,47.84,25h0a2.28,2.28,0,0,1,1.62-.67m.72,1.57a1,1,0,0,0-1.45,0h0a1,1,0,0,0,1.45,1.45h0a1,1,0,0,0,0-1.45" transform="translate(0 0)"/><path class="cls-6" d="M50.07,6.44a2.3,2.3,0,1,1-1.62.67h0a2.28,2.28,0,0,1,1.62-.67M50.79,8a1,1,0,0,0-1.45,0h0a1,1,0,1,0,1.45,0" transform="translate(0 0)"/><path class="cls-6" d="M57.19,10.61a3,3,0,0,1,2.14.89h0a3,3,0,0,1,0,4.28h0a3,3,0,0,1-4.28,0h0a3,3,0,0,1,2.14-5.17m1.24,1.78a1.76,1.76,0,0,0-2.49,2.49h0a1.76,1.76,0,0,0,2.49,0h0a1.76,1.76,0,0,0,0-2.49Z" transform="translate(0 0)"/><path class="cls-6" d="M43.44,14.17a3,3,0,0,1,2.14.89h0a3,3,0,0,1,0,4.28h0a3,3,0,0,1-4.28,0h0a3,3,0,0,1,2.14-5.17M44.69,16a1.76,1.76,0,0,0-2.49,2.49h0A1.76,1.76,0,0,0,44.68,16Z" transform="translate(0 0)"/><path class="cls-6" d="M11.78,40.8a2.41,2.41,0,0,1,1.71,4.12h0a2.41,2.41,0,1,1-1.7-4.12m.81,1.61a1.14,1.14,0,1,0,.33.81,1.14,1.14,0,0,0-.33-.81" transform="translate(0 0)"/><path class="cls-6" d="M18.84,45.83a2.23,2.23,0,1,1-1.58.65,2.23,2.23,0,0,1,1.58-.65m.68,1.55a1,1,0,1,0,.28.68,1,1,0,0,0-.28-.68" transform="translate(0 0)"/><path class="cls-6" d="M3.43,38a2.3,2.3,0,0,1,1.62.67h0a2.29,2.29,0,1,1-3.24,3.24h0a2.29,2.29,0,0,1,0-3.24h0A2.28,2.28,0,0,1,3.43,38m.73,1.57h0a1,1,0,0,0-1.45,0h0a1,1,0,0,0-.3.73,1,1,0,0,0,.3.72h0a1,1,0,0,0,1.74-.72,1,1,0,0,0-.3-.73" transform="translate(0 0)"/><path class="cls-6" d="M4.29,25.71a2.3,2.3,0,1,1-1.62.67h0a2.28,2.28,0,0,1,1.62-.67M5,27.28a1,1,0,0,0-1.45,0h0a1,1,0,0,0-.3.72,1,1,0,0,0,2,0,1,1,0,0,0-.3-.72" transform="translate(0 0)"/><path class="cls-6" d="M14.85,31.6a2.3,2.3,0,1,1-1.62.67h0a2.29,2.29,0,0,1,1.62-.67m.72,1.57a1,1,0,0,0-1.45,0h0a1,1,0,0,0,1.45,1.44,1,1,0,0,0,.3-.72,1,1,0,0,0-.3-.72" transform="translate(0 0)"/><path class="cls-6" d="M20.92,27.3a3.08,3.08,0,0,1,2.18.91h0a3.09,3.09,0,0,1,0,4.37h0a3.08,3.08,0,0,1-4.36,0h0a3.08,3.08,0,0,1,0-4.37h0a3.08,3.08,0,0,1,2.18-.91m1.29,1.8a1.82,1.82,0,0,0-2.57,0h0a1.82,1.82,0,0,0,0,2.57h0a1.82,1.82,0,0,0,2.57,0h0a1.82,1.82,0,0,0,0-2.57Z" transform="translate(0 0)"/><path class="cls-6" d="M15.4,22.27a2.35,2.35,0,0,1,1.66.69h0a2.34,2.34,0,0,1,0,3.32h0a2.35,2.35,0,0,1-3.32,0h0a2.35,2.35,0,0,1,0-3.32h0a2.35,2.35,0,0,1,1.66-.69m.77,1.58a1.09,1.09,0,0,0-1.53,0h0a1.09,1.09,0,0,0,0,1.53h0a1.09,1.09,0,0,0,1.53,0h0a1.09,1.09,0,0,0,0-1.53Z" transform="translate(0 0)"/><path class="cls-6" d="M16.75,8a3,3,0,0,1,2.1.87h0a3,3,0,0,1,0,4.19h0a3,3,0,0,1-4.19,0h0a3,3,0,0,1,0-4.19h0A3,3,0,0,1,16.75,8M18,9.8h0a1.7,1.7,0,0,0-2.4,0h0a1.71,1.71,0,0,0,0,2.4h0a1.7,1.7,0,0,0,2.4,0h0a1.71,1.71,0,0,0,0-2.4" transform="translate(0 0)"/><path class="cls-6" d="M25.4,15a3.14,3.14,0,0,1,2.23.92h0a3.15,3.15,0,1,1-4.45,4.45h0a3.15,3.15,0,0,1,0-4.46h0A3.14,3.14,0,0,1,25.4,15m1.33,1.82a1.88,1.88,0,0,0-2.66,0h0a1.88,1.88,0,0,0,0,2.66h0a1.88,1.88,0,0,0,2.66-2.66Z" transform="translate(0 0)"/><path class="cls-6" d="M31,8.16a3.09,3.09,0,0,1,2.18.91h0a3.09,3.09,0,0,1,0,4.37h0a3.08,3.08,0,0,1-4.37,0h0a3.09,3.09,0,0,1,0-4.37h0A3.09,3.09,0,0,1,31,8.16M32.27,10a1.82,1.82,0,0,0-2.57,0h0a1.82,1.82,0,0,0,0,2.57h0a1.83,1.83,0,0,0,2.57,0h0a1.82,1.82,0,0,0,0-2.57Z" transform="translate(0 0)"/><path class="cls-6" d="M43.87,34.67a2.23,2.23,0,1,1-1.58.66,2.22,2.22,0,0,1,1.58-.66m.68,1.55a1,1,0,1,0,.28.68,1,1,0,0,0-.28-.68" transform="translate(0 0)"/><path class="cls-6" d="M37.82,2.66a1.91,1.91,0,0,1,1.35.56h0a1.91,1.91,0,0,1,0,2.71h0a1.92,1.92,0,0,1-2.71,0h0a1.92,1.92,0,0,1,1.36-3.27m.79,1.13A1.11,1.11,0,0,0,37,5.36h0a1.11,1.11,0,1,0,1.57-1.57Z" transform="translate(0 0)"/></g></svg>