<svg xmlns="http://www.w3.org/2000/svg" xmlns:xlink="http://www.w3.org/1999/xlink" viewBox="0 0 171.76 205"><defs><style>.cls-1{fill:none;}.cls-2{clip-path:url(#clip-path);}.cls-3,.cls-4{fill:#fff;}.cls-4{fill-rule:evenodd;}</style><clipPath id="clip-path" transform="translate(0 0)"><rect class="cls-1" width="171.76" height="205"/></clipPath></defs><title>Ресурс 1</title><g id="Слой_2" data-name="Слой 2"><g id="Слой_1-2" data-name="Слой 1"><g class="cls-2"><path class="cls-3" d="M109.05,47.33a1.79,1.79,0,0,0,1.26-.52h0a1.79,1.79,0,0,0-1.27-3.06,1.78,1.78,0,0,0-1.27.52h0a1.79,1.79,0,0,0,1.27,3.06" transform="translate(0 0)"/><path class="cls-3" d="M120.43,24.92a3.08,3.08,0,0,0,4.36,0h0a3.08,3.08,0,0,0,0-4.36h0a3.08,3.08,0,0,0-4.36,4.36Z" transform="translate(0 0)"/><path class="cls-3" d="M99.26,65.19a1.68,1.68,0,1,0-1.19-.49,1.68,1.68,0,0,0,1.19.49" transform="translate(0 0)"/><path class="cls-3" d="M78.93,20.8a3.18,3.18,0,0,0,0-4.51h0a3.19,3.19,0,0,0-4.51,0h0a3.19,3.19,0,0,0,0,4.51h0a3.2,3.2,0,0,0,4.51,0Z" transform="translate(0 0)"/><path class="cls-3" d="M122.61,42a2,2,0,1,0,1.42.59,2,2,0,0,0-1.42-.59" transform="translate(0 0)"/><path class="cls-3" d="M96.33,31.16a3.08,3.08,0,0,0,4.36-4.36h0a3.09,3.09,0,0,0-4.36,4.37Z" transform="translate(0 0)"/><path class="cls-3" d="M110.13,15.92a1.79,1.79,0,1,0-1.27-3.06h0a1.77,1.77,0,0,0-.52,1.26,1.78,1.78,0,0,0,1.79,1.79" transform="translate(0 0)"/><path class="cls-3" d="M114.65,106.93a1.79,1.79,0,1,0-1.27-3.06h0a1.79,1.79,0,0,0,1.27,3.06" transform="translate(0 0)"/><path class="cls-3" d="M137.77,90.15a1.68,1.68,0,1,0-1.19-.49,1.68,1.68,0,0,0,1.19.49" transform="translate(0 0)"/><path class="cls-3" d="M113.18,81a3.3,3.3,0,0,0,4.67-4.67h0a3.31,3.31,0,0,0-4.66,0h0a3.3,3.3,0,0,0,0,4.66Z" transform="translate(0 0)"/><path class="cls-3" d="M53.83,16h0a3,3,0,0,0-4.21,0h0a3,3,0,0,0,0,4.21h0a3,3,0,0,0,4.21,0h0a3,3,0,0,0,0-4.21" transform="translate(0 0)"/><path class="cls-3" d="M131.84,39.79l1.29.38,0,.06a1.57,1.57,0,1,0-1.29-.45l0,0" transform="translate(0 0)"/><path class="cls-3" d="M138.93,54.39a3.09,3.09,0,1,0-.9-2.18,3.09,3.09,0,0,0,.9,2.18Z" transform="translate(0 0)"/><path class="cls-3" d="M140.52,70.88a1.91,1.91,0,0,0,2.69,0h0a1.91,1.91,0,0,0,0-2.69h0a1.91,1.91,0,0,0-2.69,0h0a1.91,1.91,0,0,0,0,2.69Z" transform="translate(0 0)"/><path class="cls-3" d="M98.57,87.23a1.91,1.91,0,0,0,2.68,0h0a1.9,1.9,0,0,0,0-2.68h0a1.9,1.9,0,0,0-2.68,0h0a1.9,1.9,0,0,0,0,2.68Z" transform="translate(0 0)"/><path class="cls-3" d="M150.12,63.88a63.88,63.88,0,0,0-127.76,0v0a63.88,63.88,0,0,0,61.29,63.79V109.09l-11-3.85L69.33,108a5.73,5.73,0,0,1-8.86,7.18h0a5.73,5.73,0,0,1,0-8.11h0a5.73,5.73,0,0,1,7.31-.66l2.45-2.06-1.16-.4a1.82,1.82,0,0,1-.57-.33l-16.39,3.63A4.14,4.14,0,0,1,51,109.45h0a4.11,4.11,0,0,1-5.82,0h0a4.11,4.11,0,0,1,0-5.82h0a4.11,4.11,0,0,1,5.82,0h0a4.14,4.14,0,0,1,.92,1.43l14.31-3.16L61.87,100a5.16,5.16,0,0,1-6.94-.34h0a5.19,5.19,0,0,1,0-7.35h0a5.19,5.19,0,0,1,7.35,0h0a5.13,5.13,0,0,1,1,5.89l5.53,2.39a1.85,1.85,0,0,1,1.47-.12l5.16,1.81-1.56-5.84a5.3,5.3,0,0,1-3.65-1.55h0a5.3,5.3,0,0,1,0-7.5h0a5.29,5.29,0,0,1,7.5,0h0a5.3,5.3,0,0,1,0,7.5h0A5.32,5.32,0,0,1,76.07,96L78,103.18l5.67,2V82.41L65.08,75.83l-6,6.14a3.86,3.86,0,0,1,.18,1.11,4,4,0,1,1-1.43-3L62.78,75l-6.06-2.15L47.2,75A4.23,4.23,0,0,1,46,77.58h0a4.28,4.28,0,1,1,.81-4.82l6.62-1.44L45.57,68.1l.06-.16L32.37,69.62a4,4,0,0,1-6.83,2.64h0a4,4,0,0,1,0-5.68h0a4,4,0,0,1,5.68,0h0a4,4,0,0,1,.64.87L44.11,65.9,31.35,51.64A4,4,0,0,1,27,45.07h0a4,4,0,0,1,6.06,5.21L46.66,65.43l0-.06,7.92,3.24-4.67-6.67a4,4,0,0,1-4.39-6.54h0a4,4,0,0,1,6.11,5.15l6.15,8.79,25.83,9.15V59l-13-9.3L64.4,51.4a5.48,5.48,0,0,1,.05.71,5.4,5.4,0,0,1-1.59,3.83h0a5.39,5.39,0,0,1-7.65,0h0a5.41,5.41,0,0,1,0-7.66h0a5.4,5.4,0,0,1,7.65,0h0a5.45,5.45,0,0,1,.8,1L68.33,48,62,43.5l-8.79-.17a4.13,4.13,0,0,1-1,1.57h0a4.11,4.11,0,0,1-5.82,0h0a4.11,4.11,0,0,1,0-5.82h0a4.11,4.11,0,0,1,5.82,0h0a4.14,4.14,0,0,1,1.11,2l7.64.15a1.83,1.83,0,0,1,.26-.56l.1-.11L52.61,23.22A5,5,0,0,1,48,21.79h0a5.19,5.19,0,0,1,0-7.34h0a5.2,5.2,0,0,1,7.35,0h0a5.18,5.18,0,0,1,0,7.34h0a5.2,5.2,0,0,1-.72.6l9,17.76.22.13,2.66,1.9v-6A5.5,5.5,0,0,1,63,34.6h0a5.52,5.52,0,0,1,0-7.81h0a5.51,5.51,0,0,1,7.81,0h0a5.51,5.51,0,0,1-2,9.09v7.88L83.64,54.42V45.6L76.73,24h0a5.39,5.39,0,0,1-3.83-1.59h0a5.41,5.41,0,0,1,0-7.66h0a5.4,5.4,0,0,1,7.65,0h0a5.41,5.41,0,0,1,0,7.66h0a5.45,5.45,0,0,1-1.6,1.11l5.62,17.59h.81L87.49,10a3.34,3.34,0,0,1-1.21-.76h0A3.36,3.36,0,1,1,91,4.47h0a3.35,3.35,0,0,1,0,4.75h0a3.35,3.35,0,0,1-1.32.8l-2.12,31h.66l6.08-8.85a5.29,5.29,0,0,1,7.93-7h0a5.3,5.3,0,0,1,0,7.5h0a5.22,5.22,0,0,1-6.22.91l-7.2,10.47v5.81L108,33.49a1.7,1.7,0,0,1,.19-.13l.31-15.58a4,4,0,0,1-1.17-6.48h0a4,4,0,1,1,3.38,6.8L110.37,33l7.94-7.21a5.3,5.3,0,0,1,8-6.85h0a5.29,5.29,0,0,1,0,7.5h0a5.24,5.24,0,0,1-6.38.83l-9.11,8.27a1.8,1.8,0,0,1-.5.71L102,43.51l3.37.5a4,4,0,0,1,.87-1.3h0a4,4,0,1,1,5.67,5.67h0a4,4,0,0,1-6.78-2.16l-5.36-.79L88.84,54.81V75.62l3.59-1.81,4.22-7.42-.15-.12a3.91,3.91,0,1,1,2.76,1.14,4,4,0,0,1-.61-.06L96,72l28.9-14.53-2.2-9.23h-.09a4.24,4.24,0,1,1,3-1.25h0a4.28,4.28,0,0,1-.77.59l1.73,7.24,3.87-13.36c-.06-.05-.13-.1-.18-.15a3.8,3.8,0,1,1,2.69,1.11,3.7,3.7,0,0,1-.46,0l-4,13.93,7.38-3.93c0-.07,0-.13,0-.19a5.31,5.31,0,0,1,9.06-3.76h0a5.3,5.3,0,0,1,0,7.5h0a5.31,5.31,0,0,1-7.5,0h0a5.35,5.35,0,0,1-1-1.35l-8.53,4.54a1.84,1.84,0,0,1-1,1.49l-5.55,2.79L138.06,68a4.15,4.15,0,0,1,.89-1.33h0a4.11,4.11,0,0,1,5.82,0h0a4.11,4.11,0,0,1,0,5.82h0a4.11,4.11,0,0,1-5.82,0h0a4.1,4.1,0,0,1-1.14-2.26l-19.47-5.26L88.84,79.76V99.82l5-2.68L97,88.8h0A4.11,4.11,0,0,1,97,83h0a4.1,4.1,0,0,1,5.82,0h0a4.11,4.11,0,0,1,0,5.82h0A4,4,0,0,1,99,89.89l-2.15,5.65,9.41-5a1.84,1.84,0,0,1,.76-.21l4.77-7.57-.15-.14h0a5.51,5.51,0,0,1,0-7.8h0a5.52,5.52,0,0,1,7.8,0h0a5.51,5.51,0,0,1-5.75,9.1l-4.46,7.08,24.72-3a3.94,3.94,0,1,1,.32,2.2l-25.69,3.16a1.82,1.82,0,0,1-.58.48l-5.31,2.85,9,5.85s.08-.1.13-.15h0a4.2,4.2,0,1,1-1.11,2.16l-10.26-6.67L88.84,104v23.69a63.88,63.88,0,0,0,61.29-63.81" transform="translate(0 0)"/><path class="cls-3" d="M55.38,81.4a1.68,1.68,0,1,0,1.19.49,1.69,1.69,0,0,0-1.19-.49" transform="translate(0 0)"/><path class="cls-3" d="M67,108.67a3.52,3.52,0,0,0-5,0h0a3.52,3.52,0,0,0,0,5h0a3.52,3.52,0,0,0,5-5Z" transform="translate(0 0)"/><path class="cls-3" d="M60.71,93.89a3,3,0,0,0-4.21,0h0a3,3,0,0,0,0,4.21h0a3,3,0,0,0,4.21,0h0a3,3,0,0,0,0-4.21Z" transform="translate(0 0)"/><path class="cls-3" d="M49.41,105.19a1.91,1.91,0,0,0-2.69,0h0a1.9,1.9,0,0,0,0,2.68h0a1.91,1.91,0,0,0,2.69,0h0a1.91,1.91,0,0,0,0-2.68Z" transform="translate(0 0)"/><path class="cls-3" d="M90,8.22a2,2,0,0,0,0-2.76h0a2,2,0,0,0-2.76,2.76h0a2,2,0,0,0,2.76,0" transform="translate(0 0)"/><path class="cls-3" d="M76.17,93.33A3.08,3.08,0,1,0,71.8,89h0a3.09,3.09,0,0,0,0,4.36h0a3.09,3.09,0,0,0,4.36,0Z" transform="translate(0 0)"/><path class="cls-3" d="M29.64,68.16a1.79,1.79,0,0,0-2.53,0h0a1.8,1.8,0,0,0,0,2.54h0a1.8,1.8,0,0,0,2.54-2.54Z" transform="translate(0 0)"/><path class="cls-3" d="M48.39,56.44a1.8,1.8,0,0,0-1.27.52h0a1.79,1.79,0,1,0,1.27-.53" transform="translate(0 0)"/><path class="cls-3" d="M70.18,30.7a3.29,3.29,0,0,0-1-2.33h0a3.3,3.3,0,0,0-4.66,0h0a3.3,3.3,0,0,0,0,4.66h0a3.3,3.3,0,0,0,5.63-2.34" transform="translate(0 0)"/><path class="cls-3" d="M61.29,49.85a3.2,3.2,0,0,0-4.51,0h0a3.2,3.2,0,0,0,0,4.51h0a3.2,3.2,0,0,0,4.51,0h0a3.19,3.19,0,0,0,0-4.51Z" transform="translate(0 0)"/><path class="cls-3" d="M50.7,40.65a1.91,1.91,0,0,0-2.69,0h0a1.9,1.9,0,0,0,0,2.68h0a1.91,1.91,0,0,0,2.69,0h0a1.91,1.91,0,0,0,0-2.68Z" transform="translate(0 0)"/><path class="cls-3" d="M43,72.58a2,2,0,1,0,1.42.59A2,2,0,0,0,43,72.58" transform="translate(0 0)"/><path class="cls-3" d="M29.88,46.12a1.81,1.81,0,0,0-1.27.52h0a1.8,1.8,0,1,0,1.27-.52" transform="translate(0 0)"/><path class="cls-3" d="M86.12,127.76c-.83,0-1.66,0-2.48-.07v.07h5.19v-.07c-.82,0-1.65.07-2.48.07Z" transform="translate(0 0)"/><path class="cls-4" d="M7.93,204H6.83L6.78,202H1.27L1.2,204H.11L0,201a3.43,3.43,0,0,0,1-.92,5.31,5.31,0,0,0,.63-1.18A8.67,8.67,0,0,0,2,197.6c.1-.45.17-.89.24-1.31l.28-1.92h4.2l.71,6.37L8,201Zm-2.48-8.48H3.71l-.15,1q-.08.52-.19,1.11a9.06,9.06,0,0,1-.29,1.16,6.55,6.55,0,0,1-.46,1.08,3.22,3.22,0,0,1-.7.89H6Zm10.25,2v.28c0,.1,0,.19,0,.3l-5,.71a2.22,2.22,0,0,0,.73,1.54,2.41,2.41,0,0,0,1.59.51,5.14,5.14,0,0,0,1.14-.12,3.78,3.78,0,0,0,1-.33l.45,1.15a4.48,4.48,0,0,1-1.15.39,7.28,7.28,0,0,1-1.49.15,4.33,4.33,0,0,1-1.6-.28,3.13,3.13,0,0,1-1.17-.8,3.53,3.53,0,0,1-.72-1.25,5,5,0,0,1-.25-1.64,5.28,5.28,0,0,1,.23-1.6,3.67,3.67,0,0,1,.68-1.25,3.07,3.07,0,0,1,1.08-.81,3.39,3.39,0,0,1,1.44-.29,3.54,3.54,0,0,1,1.32.23,2.72,2.72,0,0,1,1,.66,3,3,0,0,1,.62,1.06,4.32,4.32,0,0,1,.21,1.38m-1.48-.24a2.14,2.14,0,0,0-.47-1.48,1.61,1.61,0,0,0-1.22-.49,1.76,1.76,0,0,0-1.42.64,2.91,2.91,0,0,0-.56,1.84Zm9.19,2.62a1.82,1.82,0,0,1-.84,1.64,4.65,4.65,0,0,1-2.49.54,7.68,7.68,0,0,1-1.43-.13,4.73,4.73,0,0,1-1.23-.4v-6.84a5.47,5.47,0,0,1,1.22-.39,7,7,0,0,1,1.4-.14,4.21,4.21,0,0,1,2.32.54,1.73,1.73,0,0,1,.82,1.52,1.54,1.54,0,0,1-.13.63,1.68,1.68,0,0,1-.34.52,2.12,2.12,0,0,1-.48.38,1.87,1.87,0,0,1-.54.21v0a3.59,3.59,0,0,1,.59.2,2.09,2.09,0,0,1,.55.36,1.88,1.88,0,0,1,.41.56,1.76,1.76,0,0,1,.16.77m-1.71-3.55a1.05,1.05,0,0,0-.41-.87,2,2,0,0,0-1.25-.33,3.35,3.35,0,0,0-.64.06,2.58,2.58,0,0,0-.51.15v2.24h1.19a3.47,3.47,0,0,0,.72-.06,1.2,1.2,0,0,0,.47-.21,1.07,1.07,0,0,0,.32-.41,1.32,1.32,0,0,0,.12-.58m.18,3.48a1.13,1.13,0,0,0-.59-1.07,1.74,1.74,0,0,0-.48-.18,3.66,3.66,0,0,0-.72-.05H18.89v2.38a2.21,2.21,0,0,0,.54.15,4,4,0,0,0,.65.05q1.81,0,1.8-1.28m9.5-2.31v.28c0,.1,0,.19,0,.3l-5,.71a2.22,2.22,0,0,0,.73,1.54,2.41,2.41,0,0,0,1.59.51,5.16,5.16,0,0,0,1.14-.12,3.78,3.78,0,0,0,1-.33l.45,1.15a4.51,4.51,0,0,1-1.16.39,7.28,7.28,0,0,1-1.49.15,4.31,4.31,0,0,1-1.6-.28,3.13,3.13,0,0,1-1.17-.8,3.55,3.55,0,0,1-.72-1.25,5.11,5.11,0,0,1-.25-1.64,5.21,5.21,0,0,1,.23-1.6,3.61,3.61,0,0,1,.68-1.25,3,3,0,0,1,1.08-.81,3.36,3.36,0,0,1,1.44-.29,3.51,3.51,0,0,1,1.32.23,2.7,2.7,0,0,1,1,.66,3,3,0,0,1,.62,1.06,4.29,4.29,0,0,1,.21,1.38m-1.48-.24a2.15,2.15,0,0,0-.47-1.48,1.6,1.6,0,0,0-1.22-.49,1.77,1.77,0,0,0-1.42.64,2.9,2.9,0,0,0-.56,1.84ZM38.18,202l-.68-6.39H35.78l-.23,1.59c-.07.49-.17,1-.28,1.5a6.85,6.85,0,0,1-.5,1.46,4.5,4.5,0,0,1-.87,1.23,3.36,3.36,0,0,1-1.37.82L32,201a2.43,2.43,0,0,0,.88-.64,3.43,3.43,0,0,0,.58-.94,6.33,6.33,0,0,0,.36-1.13q.14-.6.22-1.23l.37-2.65H38.9l.83,7.6Zm9.64-3.8a5.39,5.39,0,0,1-.22,1.57A3.65,3.65,0,0,1,47,201a3,3,0,0,1-1,.83,3.52,3.52,0,0,1-2.86,0,3,3,0,0,1-1-.83,3.65,3.65,0,0,1-.64-1.25,5.46,5.46,0,0,1-.22-1.57,5.4,5.4,0,0,1,.22-1.57,3.65,3.65,0,0,1,.64-1.24,3,3,0,0,1,1-.83,3.53,3.53,0,0,1,2.86,0,3,3,0,0,1,1,.83,3.64,3.64,0,0,1,.64,1.24,5.33,5.33,0,0,1,.22,1.57m-1.55,0a3.77,3.77,0,0,0-.44-2,1.6,1.6,0,0,0-2.69,0,3.78,3.78,0,0,0-.44,2,3.84,3.84,0,0,0,.44,2,1.59,1.59,0,0,0,2.69,0,3.83,3.83,0,0,0,.44-2M54,202v-6.39H51.07V202H49.53v-7.6h6V202Zm9.81-4.41v.28c0,.1,0,.19,0,.3l-5,.71a2.23,2.23,0,0,0,.73,1.54,2.43,2.43,0,0,0,1.6.51,5.17,5.17,0,0,0,1.14-.12,3.81,3.81,0,0,0,1-.33l.45,1.15a4.5,4.5,0,0,1-1.16.39,7.32,7.32,0,0,1-1.5.15,4.32,4.32,0,0,1-1.6-.28,3.14,3.14,0,0,1-1.17-.8,3.56,3.56,0,0,1-.72-1.25,5.11,5.11,0,0,1-.25-1.64,5.28,5.28,0,0,1,.23-1.6,3.66,3.66,0,0,1,.68-1.25,3.07,3.07,0,0,1,1.08-.81,3.38,3.38,0,0,1,1.44-.29,3.53,3.53,0,0,1,1.32.23,2.72,2.72,0,0,1,1,.66,3,3,0,0,1,.62,1.06,4.26,4.26,0,0,1,.21,1.38m-1.48-.24a2.13,2.13,0,0,0-.47-1.48,1.6,1.6,0,0,0-1.22-.49,1.77,1.77,0,0,0-1.42.64,2.91,2.91,0,0,0-.56,1.84Zm9.49.79a5.34,5.34,0,0,1-.23,1.6,3.51,3.51,0,0,1-.67,1.25,3,3,0,0,1-1.11.81,3.79,3.79,0,0,1-1.52.29,4.48,4.48,0,0,1-.7-.06,3.76,3.76,0,0,1-.54-.13V205H65.53V194.75a4.75,4.75,0,0,1,1.11-.37,6.48,6.48,0,0,1,1.49-.16,3.54,3.54,0,0,1,2.74,1,4.07,4.07,0,0,1,1,2.85m-1.54,0a3.18,3.18,0,0,0-.54-2,1.87,1.87,0,0,0-1.58-.71,3.08,3.08,0,0,0-.63.06,2.26,2.26,0,0,0-.47.13v5.06a1.94,1.94,0,0,0,.47.12,4.19,4.19,0,0,0,.63,0,2,2,0,0,0,.92-.2,1.84,1.84,0,0,0,.67-.57,2.58,2.58,0,0,0,.4-.87,4.26,4.26,0,0,0,.13-1.1m8.26,3.49a3.19,3.19,0,0,1-.84.38,3.9,3.9,0,0,1-1.11.14,3.39,3.39,0,0,1-1.23-.23,3,3,0,0,1-1.07-.72,3.55,3.55,0,0,1-.75-1.23,5.76,5.76,0,0,1,0-3.55,3.55,3.55,0,0,1,.75-1.23,3,3,0,0,1,1.07-.71,3.37,3.37,0,0,1,1.23-.23,4,4,0,0,1,1.11.14,3,3,0,0,1,.83.38l-.51,1.11a2,2,0,0,0-.56-.27,2.37,2.37,0,0,0-.68-.09,1.79,1.79,0,0,0-.73.15,1.68,1.68,0,0,0-.62.47A2.52,2.52,0,0,0,75,197a4,4,0,0,0-.16,1.2,3.94,3.94,0,0,0,.16,1.2,2.53,2.53,0,0,0,.44.83,1.71,1.71,0,0,0,.63.49,1.79,1.79,0,0,0,.72.15,2.28,2.28,0,0,0,.68-.1,1.93,1.93,0,0,0,.56-.27Zm6.16.37-1.21-2.32a3,3,0,0,0-.74-.92,1.7,1.7,0,0,0-1.12-.38V202H80.13v-7.6h1.52v3.41h0l2.85-3.41h1.81l-3.07,3.42a2.85,2.85,0,0,1,1,.65,4.45,4.45,0,0,1,.76,1L86.43,202Zm8.71-.38a3.67,3.67,0,0,1-.51.21,5.74,5.74,0,0,1-.66.17c-.24,0-.49.09-.76.11s-.53,0-.8,0a4,4,0,0,1-2.47-.63,2.08,2.08,0,0,1-.82-1.75,2,2,0,0,1,.39-1.28,2.61,2.61,0,0,1,1-.77,5.53,5.53,0,0,1,1.46-.4,16.32,16.32,0,0,1,1.68-.16v-.48a1.12,1.12,0,0,0-.44-1,2.11,2.11,0,0,0-1.17-.29,3.66,3.66,0,0,0-.56,0l-.57.11a5.28,5.28,0,0,0-.54.15l-.43.17-.4-1.06a7.08,7.08,0,0,1,1.17-.36,6.28,6.28,0,0,1,1.48-.17,4.91,4.91,0,0,1,1.22.14,2.48,2.48,0,0,1,.92.44,1.9,1.9,0,0,1,.58.8,3.25,3.25,0,0,1,.2,1.2ZM92,198.15c-.38,0-.76.05-1.13.09a4.71,4.71,0,0,0-1,.22,1.69,1.69,0,0,0-.71.45,1.14,1.14,0,0,0-.27.8,1.13,1.13,0,0,0,.45,1,2.18,2.18,0,0,0,1.34.35,5.18,5.18,0,0,0,.75-.06,2.24,2.24,0,0,0,.56-.14ZM99.71,202V198.9h-1a1.23,1.23,0,0,0-.75.22,1.44,1.44,0,0,0-.46.61l-1,2.24H94.9L96,199.62a2.81,2.81,0,0,1,.41-.64,1.83,1.83,0,0,1,.55-.46v0a2.29,2.29,0,0,1-1.14-.67,1.83,1.83,0,0,1-.46-1.29,2,2,0,0,1,.83-1.68,3.88,3.88,0,0,1,2.37-.63,7.3,7.3,0,0,1,1.49.15,5.16,5.16,0,0,1,1.22.39V202Zm0-6.55a3.09,3.09,0,0,0-1.21-.2,1.88,1.88,0,0,0-1.27.36,1.4,1.4,0,0,0,0,2,1.94,1.94,0,0,0,1.29.36h1.2ZM112.27,202l-1.21-2.33a3,3,0,0,0-.74-.92,1.7,1.7,0,0,0-1.12-.38V202h-1.52v-7.6h1.52v3.41h0l2.85-3.41h1.81l-3.07,3.42a2.83,2.83,0,0,1,1.05.65,4.24,4.24,0,0,1,.75,1L114,202Zm9.14-3.81a5.51,5.51,0,0,1-.22,1.57,3.69,3.69,0,0,1-.64,1.25,3,3,0,0,1-1,.83,3.49,3.49,0,0,1-2.86,0,3,3,0,0,1-1-.83,3.69,3.69,0,0,1-.64-1.25,5.51,5.51,0,0,1-.22-1.57,5.42,5.42,0,0,1,.22-1.57,3.65,3.65,0,0,1,.64-1.24,3,3,0,0,1,1-.84,3.55,3.55,0,0,1,2.86,0,3,3,0,0,1,1,.84,3.65,3.65,0,0,1,.64,1.24,5.42,5.42,0,0,1,.22,1.57m-1.55,0a3.79,3.79,0,0,0-.45-2,1.6,1.6,0,0,0-2.69,0,4.6,4.6,0,0,0,0,3.94,1.58,1.58,0,0,0,2.69,0,3.83,3.83,0,0,0,.45-2m10.9,3.82-.62-5.17c0-.12,0-.24,0-.37s0-.23,0-.34,0-.23,0-.34h0c0,.11,0,.22-.07.34a3,3,0,0,1-.08.34l-.11.37L128.05,202h-1.21l-1.72-5.17a1.94,1.94,0,0,1-.11-.35c0-.12-.05-.24-.07-.34s-.05-.23-.07-.35h0l0,.34c0,.1,0,.22,0,.34s0,.24,0,.37l-.61,5.17h-1.45l1-7.6h1.86l1.59,4.86a3.36,3.36,0,0,1,.1.33c0,.12.05.23.07.32s.05.22.07.32h0c0-.11,0-.21.07-.32l.07-.32a3.11,3.11,0,0,1,.1-.33l1.61-4.86h1.85l1,7.6Zm7.56,0v-6.39h-2.95V202h-1.53v-7.6h6V202Zm9.18-.38a3.34,3.34,0,0,1-.51.21,5.92,5.92,0,0,1-.66.17c-.24,0-.5.08-.76.11a7.93,7.93,0,0,1-.8,0,4,4,0,0,1-2.47-.63,2.09,2.09,0,0,1-.82-1.75,2,2,0,0,1,.39-1.28,2.6,2.6,0,0,1,1-.77,5.41,5.41,0,0,1,1.46-.4q.82-.12,1.68-.16v-.48a1.12,1.12,0,0,0-.44-1,2.09,2.09,0,0,0-1.17-.29,4,4,0,0,0-.55,0l-.57.11a4.6,4.6,0,0,0-.54.15l-.44.17-.39-1.06a7.32,7.32,0,0,1,1.17-.36,6.29,6.29,0,0,1,1.48-.17,4.77,4.77,0,0,1,1.22.14,2.43,2.43,0,0,1,.92.44,1.85,1.85,0,0,1,.58.8,3.21,3.21,0,0,1,.2,1.2ZM146,198.15c-.39,0-.76,0-1.13.09a4.64,4.64,0,0,0-1,.22,1.7,1.7,0,0,0-.7.45,1.15,1.15,0,0,0-.27.8,1.13,1.13,0,0,0,.45,1,2.19,2.19,0,0,0,1.34.34,5.33,5.33,0,0,0,.75-.06,2.23,2.23,0,0,0,.56-.14Zm7.88,3.82v-3.33H151V202h-1.53v-7.6H151v3.21h2.89v-3.21h1.55V202Zm8.6,0V196.8c0-.12,0-.24,0-.34s0-.22,0-.33h0l-.13.3-.15.28c-.05.11-.11.2-.18.31L158.94,202h-1.49v-7.6h1.37v4.69c0,.12,0,.24,0,.35s0,.22,0,.33a3.18,3.18,0,0,0,0,.34h0c0-.1.09-.19.14-.3l.15-.28a3,3,0,0,1,.18-.31l3-4.82h1.55V202Zm7.64,0V198.9h-1a1.23,1.23,0,0,0-.75.22,1.48,1.48,0,0,0-.47.61L167,202h-1.61l1.06-2.35a2.79,2.79,0,0,1,.41-.64,1.9,1.9,0,0,1,.55-.46v0a2.28,2.28,0,0,1-1.14-.67,1.83,1.83,0,0,1-.47-1.29,2,2,0,0,1,.83-1.68,3.88,3.88,0,0,1,2.37-.63,7.47,7.47,0,0,1,1.49.15,5.19,5.19,0,0,1,1.22.39V202Zm0-6.55a3.13,3.13,0,0,0-1.21-.2,1.9,1.9,0,0,0-1.27.36,1.27,1.27,0,0,0-.42,1,1.24,1.24,0,0,0,.42,1,1.92,1.92,0,0,0,1.29.36h1.2Z" transform="translate(0 0)"/><path class="cls-4" d="M39.53,187.67H32.2L32,181H8.81l-.22,6.67H1.26L.72,173.4a15.36,15.36,0,0,0,4-4,23.62,23.62,0,0,0,2.71-5.25A38.79,38.79,0,0,0,9.16,158q.63-3.25,1.07-6.64l1.2-9.95H33.68l3.22,30.5,3.17,1.47ZM24.28,150.28H20.56l-.27,2.24q-.33,2.79-.85,5.71t-1.26,5.57a37.73,37.73,0,0,1-1.72,4.92,13.16,13.16,0,0,1-2.35,3.74H26.35Zm50,3.77a13.75,13.75,0,0,1-1,5.17,10.93,10.93,0,0,1-2.93,4.13,13.89,13.89,0,0,1-4.95,2.73,22.32,22.32,0,0,1-7,1l-1.42,0A5.88,5.88,0,0,1,56,166.9V181H45.24V142.9a28.06,28.06,0,0,1,5.69-1.61,39.13,39.13,0,0,1,6.94-.57,23.51,23.51,0,0,1,7,1,14.87,14.87,0,0,1,5.17,2.71,11.13,11.13,0,0,1,3.17,4.21,13.61,13.61,0,0,1,1.07,5.47M63.61,154a4.94,4.94,0,0,0-1.39-3.94,6.37,6.37,0,0,0-4.24-1.2,10.06,10.06,0,0,0-1.12.06,4.88,4.88,0,0,0-.9.16v9.73a9.28,9.28,0,0,0,2,.16q5.63,0,5.63-5m15.77,27V141.42H101v9.07H90.09v6.29h9.62v8.86H90.09v6.29H101V181Zm57.1-11a10.27,10.27,0,0,1-4.07,8.64q-4.07,3.11-12.49,3.11a41.35,41.35,0,0,1-7.35-.63,28.63,28.63,0,0,1-5.71-1.56V142.9a31.25,31.25,0,0,1,5.91-1.59,40.9,40.9,0,0,1,7.16-.6,26.74,26.74,0,0,1,7.21.85,13.73,13.73,0,0,1,4.92,2.38,9.35,9.35,0,0,1,2.81,3.58,11.05,11.05,0,0,1,.9,4.51,9.14,9.14,0,0,1-1.64,5.25,9.34,9.34,0,0,1-1.77,1.92,6.75,6.75,0,0,1-2.21,1.2v.11a10.14,10.14,0,0,1,2.24,1.29,9.84,9.84,0,0,1,2.05,2,10.74,10.74,0,0,1,1.47,2.76,9.65,9.65,0,0,1,.58,3.36m-11.1-16.73a4.42,4.42,0,0,0-1.17-3.23q-1.17-1.2-4.35-1.2a11.35,11.35,0,0,0-2.68.27v8.31h3.88a6.07,6.07,0,0,0,2-.3,3.28,3.28,0,0,0,1.26-.68,4.28,4.28,0,0,0,1.09-3.17m.28,16a5.43,5.43,0,0,0-.3-1.83,3.22,3.22,0,0,0-.85-1.34,4.11,4.11,0,0,0-1.37-.79,6.14,6.14,0,0,0-2.08-.3h-3.88v8.42a9.59,9.59,0,0,0,1.18.19,13,13,0,0,0,1.5.08,7.73,7.73,0,0,0,4.46-1,4,4,0,0,0,1.34-3.45m46.11-8a33.84,33.84,0,0,1-.93,8.17,20,20,0,0,1-2.82,6.51,13,13,0,0,1-4.83,4.29,16.57,16.57,0,0,1-13.92,0,13.12,13.12,0,0,1-4.81-4.29,20,20,0,0,1-2.81-6.51,36.4,36.4,0,0,1,0-16.34,20,20,0,0,1,2.81-6.51,13.15,13.15,0,0,1,4.81-4.29,16.58,16.58,0,0,1,13.92,0,13.08,13.08,0,0,1,4.83,4.29,20,20,0,0,1,2.82,6.51,33.87,33.87,0,0,1,.93,8.17m-10.94,0a22.15,22.15,0,0,0-1.15-8.12q-1.15-2.76-3.44-2.76t-3.45,2.76a22.11,22.11,0,0,0-1.15,8.12,22.14,22.14,0,0,0,1.15,8.12q1.15,2.76,3.45,2.76t3.44-2.76a22.19,22.19,0,0,0,1.15-8.12" transform="translate(0 0)"/></g></g></g></svg>