<svg id="Слой_1" data-name="Слой 1" xmlns="http://www.w3.org/2000/svg" xmlns:xlink="http://www.w3.org/1999/xlink" viewBox="0 0 311.51 105.87"><defs><style>.cls-1,.cls-46,.cls-47,.cls-48,.cls-49{fill:none;}.cls-2{clip-path:url(#clip-path);}.cls-3{fill:#00b295;}.cls-11,.cls-12,.cls-13,.cls-14,.cls-15,.cls-16,.cls-17,.cls-18,.cls-19,.cls-20,.cls-21,.cls-22,.cls-23,.cls-24,.cls-25,.cls-26,.cls-27,.cls-28,.cls-29,.cls-3,.cls-30,.cls-31,.cls-39,.cls-4,.cls-40,.cls-41,.cls-42,.cls-43,.cls-44,.cls-5,.cls-6,.cls-7,.cls-8{fill-rule:evenodd;}.cls-4{fill:#009dd7;}.cls-5{fill:#de83b4;}.cls-6,.cls-9{fill:#6fc8bb;}.cls-33,.cls-7{fill:#62cdf6;}.cls-8{fill:#ee3890;}.cls-10,.cls-40{fill:#c04093;}.cls-11,.cls-34{fill:#39b553;}.cls-12,.cls-32{fill:#0075b8;}.cls-13{fill:#00b5e9;}.cls-14,.cls-37{fill:#6fbf50;}.cls-15{fill:#00958b;}.cls-16,.cls-35{fill:#78c79b;}.cls-17{fill:#b5afd4;}.cls-18{fill:#f7965b;}.cls-19,.cls-36{fill:#bdd238;}.cls-20{fill:#9ea8d5;}.cls-21{fill:#008d56;}.cls-22{fill:#e5dc2c;}.cls-23{fill:#ffef2f;}.cls-24{fill:#007a53;}.cls-25,.cls-38{fill:#f2643b;}.cls-26{fill:#f26e84;}.cls-27{fill:#ffd430;}.cls-28{fill:#d04262;}.cls-29{fill:#f79535;}.cls-30{fill:#0069ae;}.cls-31{fill:#ffc630;}.cls-39{fill:#ef3d5f;}.cls-41{fill:#fac2c3;}.cls-42{fill:#ef3f38;}.cls-43{fill:#dcbbd8;}.cls-44,.cls-45{fill:#db2f2b;}.cls-46,.cls-47,.cls-48,.cls-49{stroke:#939598;stroke-miterlimit:10;stroke-width:0.52px;}.cls-47{stroke-dasharray:1.02 1.02;}.cls-48{stroke-dasharray:1.02 1.02;}.cls-49{stroke-dasharray:1.06 1.06;}</style><clipPath id="clip-path" transform="translate(0 0)"><rect class="cls-1" width="311.51" height="105.87"/></clipPath></defs><title>logo--south</title><g class="cls-2"><path class="cls-3" d="M12.91,59.86a38.37,38.37,0,0,1-1-5.75c0-.31-.06-.62-.08-.92l11.57-.93c0,.25,0,.51.06.76a26.61,26.61,0,0,0,.67,4Z" transform="translate(0 0)"/><path class="cls-4" d="M15.42,66.88q-.6-1.26-1.1-2.56l10.8-4.21c.23.59.47,1.17.74,1.73Z" transform="translate(0 0)"/><path class="cls-4" d="M77.1,86c.57-.43,1.13-.87,1.69-1.33l2.2,3.1q-.91.75-1.84,1.44Z" transform="translate(0 0)"/><path class="cls-5" d="M69.55,90.45c1.1-.5,2.19-1.05,3.25-1.66l1.64,3.43q-1.62.92-3.32,1.69Z" transform="translate(0 0)"/><path class="cls-6" d="M53.36,94.19c.52,0,1,0,1.56-.08l.29,3.76L53.51,98Z" transform="translate(0 0)"/><path class="cls-6" d="M43.92,95a31,31,0,0,0,4.69.63l-.15,2.69a33.55,33.55,0,0,1-5.1-.68Z" transform="translate(0 0)"/><path class="cls-7" d="M33.5,88a30.43,30.43,0,0,0,4,1.63l-.85,2.67a34.22,34.22,0,0,1-4.47-1.82Z" transform="translate(0 0)"/><path class="cls-8" d="M17.3,21.22c.45-.5.91-1,1.38-1.47l2.73,2.62c-.43.44-.84.88-1.25,1.34Z" transform="translate(0 0)"/><path class="cls-5" d="M27.72,86.78c.43.29.86.58,1.29.86L26.9,90.78l-1.29-.86Z" transform="translate(0 0)"/><path class="cls-9" d="M51.75,74.43h.08a23.18,23.18,0,0,0,7.35-1.13l2.25,6.61a31.11,31.11,0,0,1-9.6,1.43h0Z" transform="translate(0 0)"/><path class="cls-10" d="M46.49,73.88a24.6,24.6,0,0,0,2.44.4l-.78,6.86A28.68,28.68,0,0,1,45,80.61Z" transform="translate(0 0)"/><path class="cls-11" d="M55.82,75.75A24.72,24.72,0,0,0,64,73l2.94,5.21a28.9,28.9,0,0,1-10.07,3.45Z" transform="translate(0 0)"/><path class="cls-12" d="M46.14,75.44a25.35,25.35,0,0,0,2.85.47l-.62,5.92a32,32,0,0,1-3.54-.58Z" transform="translate(0 0)"/><path class="cls-13" d="M37.6,71.69a23.41,23.41,0,0,0,5.64,2.91l-2,5.59a29.82,29.82,0,0,1-7-3.63Z" transform="translate(0 0)"/><path class="cls-14" d="M36.81,81.58a33.46,33.46,0,0,1-5.25-3.26l4.22-5.74a26.14,26.14,0,0,0,4.13,2.59Z" transform="translate(0 0)"/><path class="cls-14" d="M49.42,85c-.69,0-1.38-.11-2.06-.2l.89-7.07c.53.07,1.07.12,1.62.16Z" transform="translate(0 0)"/><path class="cls-12" d="M68.84,80.54a31.9,31.9,0,0,1-10.16,3.85l-1.47-7a24.86,24.86,0,0,0,8-3Z" transform="translate(0 0)"/><path class="cls-4" d="M61.78,77.41A25.6,25.6,0,0,0,68,74l6.73,9.44a37.65,37.65,0,0,1-8.78,4.74Z" transform="translate(0 0)"/><path class="cls-4" d="M51,79.13l.84,0c.82,0,1.63,0,2.43-.1l1.1,11.56c-1.16.1-2.34.14-3.53.14h-1.1Z" transform="translate(0 0)"/><path class="cls-4" d="M40.53,76.82a26.77,26.77,0,0,0,2.9,1.09L40.06,89a37.11,37.11,0,0,1-4.11-1.53Z" transform="translate(0 0)"/><path class="cls-15" d="M26.12,61.49c.18.51.37,1,.59,1.5L16.2,67.93c-.29-.67-.57-1.36-.84-2Z" transform="translate(0 0)"/><path class="cls-16" d="M62.25,83.57a34.38,34.38,0,0,0,3.34-1.27L67.26,86a36.42,36.42,0,0,1-3.74,1.42Z" transform="translate(0 0)"/><path class="cls-7" d="M37.53,82a33.59,33.59,0,0,0,14.3,3.13l1.24,0,.18,4.06-1.42,0a37.59,37.59,0,0,1-16-3.49Z" transform="translate(0 0)"/><path class="cls-17" d="M24,70.49a32.2,32.2,0,0,0,5.69,6.42l.08.07-2.62,3.12L27,80a36.54,36.54,0,0,1-6.36-7.17Z" transform="translate(0 0)"/><path class="cls-18" d="M17.34,36.56a37.26,37.26,0,0,1,3.47-6.27l3.36,2.29a32.63,32.63,0,0,0-3.08,5.56Z" transform="translate(0 0)"/><path class="cls-19" d="M20,62.08A32.72,32.72,0,0,0,22,67l-3.6,1.91a37.07,37.07,0,0,1-2.24-5.49Z" transform="translate(0 0)"/><path class="cls-14" d="M15.47,41.93c.1-.4.22-.78.33-1.17l3.91,1.12c-.11.34-.2.69-.3,1Z" transform="translate(0 0)"/><path class="cls-15" d="M23.52,49.45c0,.7-.08,1.4-.08,2.1A28.41,28.41,0,0,0,24,57.39l-1,.22a29.49,29.49,0,0,1-.63-6.06c0-.73,0-1.45.08-2.16Z" transform="translate(0 0)"/><path class="cls-6" d="M57.65,80.14a29.41,29.41,0,0,1-6,.62c-.91,0-1.81,0-2.7-.12l.1-1c.85.08,1.73.12,2.61.12a28.54,28.54,0,0,0,5.8-.59Z" transform="translate(0 0)"/><path class="cls-4" d="M31.74,87c-1.08-.62-2.14-1.28-3.15-2l6.46-9.52q1.09.77,2.26,1.44Z" transform="translate(0 0)"/><path class="cls-20" d="M43.83,91.47c-.56-.11-1.13-.24-1.69-.37l2.65-11.2c.4.1.81.19,1.21.27Z" transform="translate(0 0)"/><path class="cls-21" d="M22.89,48.33A29.07,29.07,0,0,1,24,43l2.69.78a25.55,25.55,0,0,0-1,4.76Z" transform="translate(0 0)"/><path class="cls-22" d="M23.81,59.43a28.18,28.18,0,0,1-.72-3.22l2.75-.5a26.26,26.26,0,0,0,.64,2.91Z" transform="translate(0 0)"/><path class="cls-11" d="M37.06,76.47c-.65-.38-1.27-.78-1.89-1.2L36.75,73c.55.39,1.12.74,1.7,1.08Z" transform="translate(0 0)"/><path class="cls-5" d="M57.64,79.72a29.28,29.28,0,0,1-6.11.64H51l.06-2.8h.43A26.34,26.34,0,0,0,57.06,77Z" transform="translate(0 0)"/><path class="cls-12" d="M73.83,77.52a34.17,34.17,0,0,1-5.76,3.94l-1.1-2a31.85,31.85,0,0,0,5.37-3.67Z" transform="translate(0 0)"/><path class="cls-12" d="M46,82.68a31.55,31.55,0,0,0,4,.49L50,85.49A34.08,34.08,0,0,1,45.64,85Z" transform="translate(0 0)"/><path class="cls-12" d="M30,74.38a31.29,31.29,0,0,0,3.8,3.12l-1.3,1.92a34.37,34.37,0,0,1-4.08-3.35Z" transform="translate(0 0)"/><path class="cls-12" d="M21.71,61.13q.38,1.18.83,2.31l-2.13.91c-.33-.81-.63-1.64-.89-2.48Z" transform="translate(0 0)"/><path class="cls-12" d="M20.26,50.23c0,.44,0,.88,0,1.33s0,.75,0,1.12l-2.32.12c0-.41,0-.83,0-1.24s0-.93,0-1.39Z" transform="translate(0 0)"/><path class="cls-23" d="M22.36,40.11c-.22.57-.42,1.14-.61,1.71l-2.22-.68q.3-.93.65-1.84Z" transform="translate(0 0)"/><path class="cls-6" d="M43.07,88.7,41,97.95c-.63-.15-1.25-.31-1.87-.48l2.46-9.13c.5.13,1,.25,1.5.37" transform="translate(0 0)"/><path class="cls-17" d="M74.92,93.29,73.64,94l-7.3-14.23.85-.45Z" transform="translate(0 0)"/><path class="cls-6" d="M20.33,49.08c0,.41-.06.83-.07,1.25L4.29,50q0-1,.1-1.9Z" transform="translate(0 0)"/><path class="cls-4" d="M55.42,77.74c.61-.09,1.21-.21,1.81-.34l2.87,13.44c-.9.19-1.82.36-2.75.5Z" transform="translate(0 0)"/><path class="cls-5" d="M35.25,72.57l.8.59-7.9,11.24c-.41-.3-.81-.59-1.21-.9Z" transform="translate(0 0)"/><path class="cls-24" d="M25.4,56.72c.13.64.27,1.26.44,1.88L12.66,62.46c-.26-.93-.5-1.88-.69-2.85Z" transform="translate(0 0)"/><path class="cls-19" d="M27.09,41c-.16.36-.31.73-.45,1.1L13.71,37.44c.22-.57.44-1.13.68-1.69Z" transform="translate(0 0)"/><path class="cls-17" d="M84,87.06c.55-.5,1.09-1,1.61-1.56l2.08,2.1q-.84.85-1.72,1.66Z" transform="translate(0 0)"/><path class="cls-20" d="M51.13,99.93h0q1.09,0,2.18-.05l.1,3c-.75,0-1.51.05-2.28.05H51.1Z" transform="translate(0 0)"/><path class="cls-6" d="M17,85.78c.88.89,1.81,1.74,2.76,2.56l-1.92,2.25q-1.52-1.3-2.93-2.71Z" transform="translate(0 0)"/><path class="cls-7" d="M77,76.63c.49-.5,1-1,1.43-1.53l6.26,5.61c-.57.65-1.16,1.28-1.77,1.89Z" transform="translate(0 0)"/><path class="cls-20" d="M59.86,86.28c.61-.15,1.22-.3,1.82-.48L64,93.88c-.75.21-1.49.41-2.26.59Z" transform="translate(0 0)"/><path class="cls-7" d="M53.3,87.2q1.15-.05,2.27-.18l.92,8.36q-1.39.15-2.8.22Z" transform="translate(0 0)"/><path class="cls-7" d="M26.22,76.57c.49.5,1,1,1.52,1.46l-5.57,6.3q-1-.87-1.89-1.8Z" transform="translate(0 0)"/><path class="cls-19" d="M10.65,48.83a41.17,41.17,0,0,1,.93-6.94l11.2,2.63a29.33,29.33,0,0,0-.64,5Z" transform="translate(0 0)"/><path class="cls-6" d="M12,61.74c-.23-.81-.43-1.64-.61-2.46L22.71,57c.13.59.27,1.17.44,1.75Z" transform="translate(0 0)"/><path class="cls-11" d="M14.22,59.95c.2.74.43,1.46.68,2.17l-8,2.74c-.3-.88-.58-1.78-.83-2.69Z" transform="translate(0 0)"/><path class="cls-25" d="M18.64,31.19c-.38.59-.75,1.19-1.09,1.81l-7.37-4c.42-.76.87-1.51,1.34-2.24Z" transform="translate(0 0)"/><path class="cls-15" d="M18.64,70.91c-.38-.59-.75-1.19-1.09-1.81l-7.37,4.05c.42.76.87,1.5,1.34,2.23Z" transform="translate(0 0)"/><path class="cls-4" d="M86.46,74.13l3.94,2.26c-.44.75-.9,1.49-1.38,2.21l-3.86-2.53c.45-.63.88-1.28,1.3-1.94" transform="translate(0 0)"/><path class="cls-19" d="M4.53,54.3,0,54.7c.09.87.2,1.73.34,2.59L4.9,56.6c-.14-.77-.27-1.54-.37-2.31" transform="translate(0 0)"/><path class="cls-26" d="M18.91,15.66c.55-.51,1.1-1,1.68-1.5l-2-2.22q-.91.78-1.78,1.6Z" transform="translate(0 0)"/><path class="cls-11" d="M16.56,45.13c-.09.5-.17,1-.23,1.5L8,45.58c.09-.62.19-1.24.3-1.86Z" transform="translate(0 0)"/><path class="cls-11" d="M87.94,46.09c.07.49.13,1,.19,1.5l8.37-.76c-.07-.62-.14-1.25-.23-1.86Z" transform="translate(0 0)"/><path class="cls-19" d="M77.24,42c-.13-.41-.26-.82-.41-1.22l10.94-3.85c.2.57.4,1.15.58,1.73Z" transform="translate(0 0)"/><path class="cls-19" d="M77.8,56.56a25.69,25.69,0,0,0,.73-7l11.59-.22a37.57,37.57,0,0,1-1,9.92Z" transform="translate(0 0)"/><path class="cls-8" d="M71.84,10.29q1.87.9,3.66,2l-2,3.22q-1.65-1-3.37-1.81Z" transform="translate(0 0)"/><path class="cls-27" d="M44.8,6.34a48.87,48.87,0,0,1,6.45-.5l0,3.77a42,42,0,0,0-5.91.47Z" transform="translate(0 0)"/><path class="cls-18" d="M38,7.89l1.46-.42,1,3.64-1.33.39Z" transform="translate(0 0)"/><path class="cls-28" d="M30.14,11.15c.91-.48,1.82-.93,2.76-1.35l1.56,3.45c-.85.38-1.7.79-2.53,1.24Z" transform="translate(0 0)"/><polygon class="cls-29" points="52.8 33.23 52.98 30.54 52.99 30.54 52.8 33.23"/><path class="cls-29" d="M60.84,36.57l2-3.07q.62.38,1.22.82l-2.17,2.91c-.33-.23-.67-.45-1-.66" transform="translate(0 0)"/><path class="cls-22" d="M67.45,43.75l3.32-1.53a19.72,19.72,0,0,1,.8,1.81l-3.46,1.22q-.3-.77-.66-1.5" transform="translate(0 0)"/><path class="cls-11" d="M69.09,53.91l3.69.61a20.39,20.39,0,0,1-.56,2.87L68.6,56.27a16.9,16.9,0,0,0,.5-2.36" transform="translate(0 0)"/><path class="cls-14" d="M68.28,57.28l3.58,1.34a20.22,20.22,0,0,1-1.64,3.62l-3.3-2a17.42,17.42,0,0,0,1.37-3" transform="translate(0 0)"/><path class="cls-4" d="M60.65,66.53l2,3.4a20.5,20.5,0,0,1-1.81,1l-1.65-3.57c.51-.24,1-.5,1.48-.78" transform="translate(0 0)"/><path class="cls-14" d="M45.82,67.86l-1.26,3.69a20.53,20.53,0,0,1-5.05-2.65l2.19-3.22a17.29,17.29,0,0,0,4.13,2.18" transform="translate(0 0)"/><path class="cls-30" d="M40,64.33l-2.57,2.94q-.42-.38-.83-.79l2.74-2.78c.21.21.42.42.65.62" transform="translate(0 0)"/><path class="cls-31" d="M38.57,35.1A21.42,21.42,0,0,1,42,32.88l1.7,3.2a17.48,17.48,0,0,0-2.79,1.84Z" transform="translate(0 0)"/><path class="cls-19" d="M38,62.11l-3,2.43a19.62,19.62,0,0,1-2-3.32l3.36-1.83A17.8,17.8,0,0,0,38,62.11" transform="translate(0 0)"/><path class="cls-32" d="M38.56,70.27a20.31,20.31,0,0,0,5.22,2.82l-2.3,6.5A28.64,28.64,0,0,1,34.65,76Z" transform="translate(0 0)"/><path class="cls-33" d="M32.79,64a23.69,23.69,0,0,0,3.07,3.92l.58.58-4.64,5.33a27.1,27.1,0,0,1-5-5.77Z" transform="translate(0 0)"/><path class="cls-34" d="M72.13,73.5a29.42,29.42,0,0,1-3.26,2.69l-4-5.83a22.6,22.6,0,0,0,2.45-2.1Z" transform="translate(0 0)"/><path class="cls-35" d="M77.7,66.52a30.84,30.84,0,0,1-4.3,5.72l-5.11-5a22.58,22.58,0,0,0,3.16-4.43Z" transform="translate(0 0)"/><path class="cls-36" d="M81.26,56a28.65,28.65,0,0,1-1.94,7.27l-6.72-3a22.15,22.15,0,0,0,1.32-5.53Z" transform="translate(0 0)"/><path class="cls-37" d="M81.11,46.62a32.1,32.1,0,0,1,.41,5.18c0,.82,0,1.62-.09,2.41L74,53.43c0-.48,0-1,0-1.47a24.71,24.71,0,0,0-.35-4.23Z" transform="translate(0 0)"/><path class="cls-37" d="M79.4,40.47a28.57,28.57,0,0,1,1.38,4.43l-7.33,1.54a21.44,21.44,0,0,0-1.06-3.29Z" transform="translate(0 0)"/><path class="cls-38" d="M69.13,27.4A30.55,30.55,0,0,1,73,30.79a31.39,31.39,0,0,1,4.85,6.46L71.2,40.73a24,24,0,0,0-3.74-4.91,25.07,25.07,0,0,0-2.76-2.45Z" transform="translate(0 0)"/><path class="cls-38" d="M60,23c.7.19,1.37.4,2,.64l-2.6,6.81c-.5-.19-1-.36-1.52-.51Z" transform="translate(0 0)"/><path class="cls-38" d="M41.31,23.75a30,30,0,0,1,10.47-1.8,33.42,33.42,0,0,1,4.78.33l-1.22,7.06a22.35,22.35,0,0,0-3.51-.27,21.27,21.27,0,0,0-8,1.48Z" transform="translate(0 0)"/><path class="cls-38" d="M33.47,28.14a30.35,30.35,0,0,1,4.62-3l3.39,6.51A22.17,22.17,0,0,0,38.11,34Z" transform="translate(0 0)"/><path class="cls-38" d="M29,32.46c.58-.69,1.2-1.36,1.86-2l5.37,5.33,0,0c-.46.47-.9,1-1.31,1.45Z" transform="translate(0 0)"/><path class="cls-9" d="M30,57a21.55,21.55,0,0,0,1.47,4.53l-6.4,3.33a30.19,30.19,0,0,1-2-6Z" transform="translate(0 0)"/><path class="cls-37" d="M22.53,46.11c0-.18.08-.36.11-.55L30,47a24.23,24.23,0,0,0-.51,5,25.73,25.73,0,0,0,.27,3.72l-7.07,1.51c-.12-.67-.22-1.35-.31-2a41.85,41.85,0,0,1-.28-5.08,23.12,23.12,0,0,1,.38-3.94" transform="translate(0 0)"/><path class="cls-12" d="M30.65,63.93a23.39,23.39,0,0,0,4.61,5.88l-3.88,4.45a28.32,28.32,0,0,1-5.84-7.19Z" transform="translate(0 0)"/><path class="cls-30" d="M78.24,66.84A31.35,31.35,0,0,1,73.57,73l-4.16-4.15a23.74,23.74,0,0,0,3.73-5Z" transform="translate(0 0)"/><path class="cls-6" d="M81.26,59.41A28.59,28.59,0,0,1,79.9,63.5l-5.44-2.4a24.29,24.29,0,0,0,1.07-3.31Z" transform="translate(0 0)"/><path class="cls-22" d="M81.08,43.41a31.34,31.34,0,0,1,1.11,8.37,32.33,32.33,0,0,1-.25,4l-5.88-.92a26.1,26.1,0,0,0-.73-9.95Z" transform="translate(0 0)"/><path class="cls-11" d="M79.43,38.9a29.77,29.77,0,0,1,1.13,2.8L74.9,43.52A22.56,22.56,0,0,0,74,41.28Z" transform="translate(0 0)"/><path class="cls-39" d="M64.19,23.79a29.5,29.5,0,0,1,9.32,6.58,31.81,31.81,0,0,1,4.17,5.32l-5.12,3a25.89,25.89,0,0,0-3.32-4.2,23.47,23.47,0,0,0-7.54-5.31Z" transform="translate(0 0)"/><path class="cls-39" d="M34.38,26.68a29.8,29.8,0,0,1,17.4-5.39,33.31,33.31,0,0,1,4.54.31l-.94,5.86a27.93,27.93,0,0,0-3.6-.23,23.86,23.86,0,0,0-14,4.3Z" transform="translate(0 0)"/><path class="cls-27" d="M26.13,35.23a29.34,29.34,0,0,1,5.42-6.33l4,4.4a23.56,23.56,0,0,0-4.36,5.05Z" transform="translate(0 0)"/><path class="cls-11" d="M21.92,45.92a32.44,32.44,0,0,1,2.47-7.52l5.39,2.51a26.31,26.31,0,0,0-2,6.19,19,19,0,0,0-.32,3.24,34.66,34.66,0,0,0,.24,4.18,26,26,0,0,0,1.72,6.74l-5.44,2.51a32.66,32.66,0,0,1-2.17-8.54,37.38,37.38,0,0,1-.27-5,23.79,23.79,0,0,1,.43-4.34" transform="translate(0 0)"/><path class="cls-14" d="M26.78,59.53a26.13,26.13,0,0,0,1,2.93l-6.45,3A33.64,33.64,0,0,1,20,61.83Z" transform="translate(0 0)"/><path class="cls-14" d="M24.84,72.07A31.73,31.73,0,0,1,23,69.33l6-3.78a23.5,23.5,0,0,0,1.4,2.13Z" transform="translate(0 0)"/><path class="cls-11" d="M80.31,69.27a34.45,34.45,0,0,1-4.22,5.45l-5.12-5a27.34,27.34,0,0,0,3.33-4.31Z" transform="translate(0 0)"/><path class="cls-24" d="M85,56A33.27,33.27,0,0,1,84,60.8L77.2,58.74A26.11,26.11,0,0,0,77.92,55Z" transform="translate(0 0)"/><path class="cls-14" d="M85,47.77a35.08,35.08,0,0,1,.22,4q0,1.16-.07,2.3l-7.1-.64c0-.55,0-1.1,0-1.66a28.38,28.38,0,0,0-.19-3.29Z" transform="translate(0 0)"/><polygon class="cls-14" points="82.75 38.92 82.75 38.92 78.44 40.6 82.75 38.92"/><path class="cls-23" d="M76.64,29.28a34.17,34.17,0,0,1,4.34,6L74.7,38.67A27.48,27.48,0,0,0,71.27,34Z" transform="translate(0 0)"/><path class="cls-18" d="M71.32,24.45a33.44,33.44,0,0,1,4,3.42l-5.1,5a26.43,26.43,0,0,0-3.13-2.67Z" transform="translate(0 0)"/><path class="cls-28" d="M55,18.39a33.34,33.34,0,0,1,8.33,1.82l-2.55,6.66a26.06,26.06,0,0,0-6.53-1.39Z" transform="translate(0 0)"/><path class="cls-28" d="M47.46,18.51a36.06,36.06,0,0,1,3.62-.26l.11,7.13a27.57,27.57,0,0,0-2.83.2Z" transform="translate(0 0)"/><path class="cls-25" d="M26.68,29.51A33.1,33.1,0,0,1,30.24,26a33.52,33.52,0,0,1,8.58-5.25l2.77,6.57a26.18,26.18,0,0,0-6.78,4.15,25.6,25.6,0,0,0-2.74,2.65Z" transform="translate(0 0)"/><path class="cls-14" d="M23,34.61c.39-.67.82-1.34,1.25-2l5.92,4c-.35.51-.68,1-1,1.55Z" transform="translate(0 0)"/><path class="cls-6" d="M73.52,68.7c.27-.34.53-.67.77-1l9.36,6.86c-.35.49-.72,1-1.1,1.45Z" transform="translate(0 0)"/><path class="cls-4" d="M31.07,69.9a26.91,26.91,0,0,0,2.48,2.45l.51.43-7.28,9L26,81.14a38.87,38.87,0,0,1-3.46-3.41Z" transform="translate(0 0)"/><path class="cls-4" d="M28.2,66q.39.65.81,1.28L19.59,74c-.43-.61-.83-1.25-1.21-1.88Z" transform="translate(0 0)"/><path class="cls-29" d="M82.85,27.81c.72.94,1.4,1.9,2,2.89L75,36.8q-.69-1.05-1.47-2.06Z" transform="translate(0 0)"/><path class="cls-40" d="M70.49,17.17a37.61,37.61,0,0,1,4.86,3.16l-7.1,9.17a26.14,26.14,0,0,0-3.4-2.2Z" transform="translate(0 0)"/><path class="cls-8" d="M55.84,12.72a39.41,39.41,0,0,1,7.51,1.47L59.82,25.25a27.11,27.11,0,0,0-5.26-1Z" transform="translate(0 0)"/><path class="cls-28" d="M36.31,15.66a38.34,38.34,0,0,1,6.28-2.07L45.3,24.87a26.31,26.31,0,0,0-4.38,1.43Z" transform="translate(0 0)"/><path class="cls-8" d="M22.4,25.73a38.55,38.55,0,0,1,4.18-4.07l.72-.59,7.3,9-.6.48a27.6,27.6,0,0,0-2.89,2.8Z" transform="translate(0 0)"/><path class="cls-26" d="M18,31.76q.7-1.2,1.49-2.35l9.58,6.53q-.54.78-1,1.59Z" transform="translate(0 0)"/><path class="cls-31" d="M80.6,26.43A38.44,38.44,0,0,1,84.05,31l-3.44,2.13A33.59,33.59,0,0,0,77.53,29Z" transform="translate(0 0)"/><path class="cls-18" d="M71.82,19.37a36.89,36.89,0,0,1,6.86,5.52l-2.92,2.81a33.2,33.2,0,0,0-6.15-4.87Z" transform="translate(0 0)"/><path class="cls-25" d="M52.69,14.08a37.54,37.54,0,0,1,13.08,2.6l-1.57,3.79a33.79,33.79,0,0,0-11.63-2.33Z" transform="translate(0 0)"/><path class="cls-23" d="M40.2,15.86a37.26,37.26,0,0,1,8.05-1.63l.37,4.05a33.07,33.07,0,0,0-7.17,1.45Z" transform="translate(0 0)"/><path class="cls-4" d="M73.48,77.32c.79-.67,1.56-1.39,2.3-2.15a34.66,34.66,0,0,0,4.58-5.82l3.44,2.18A38.31,38.31,0,0,1,78.7,78q-1.26,1.29-2.61,2.44Z" transform="translate(0 0)"/><path class="cls-41" d="M35.12,17.91l.9-.43,1.71,3.7-.79.38Z" transform="translate(0 0)"/><path class="cls-23" d="M23.56,26.75a36.33,36.33,0,0,1,3.19-3.19l2.73,3a32.68,32.68,0,0,0-2.86,2.85Z" transform="translate(0 0)"/><path class="cls-29" d="M32.06,31.27a28.6,28.6,0,0,0-4.13,5l-.85-.53a29.27,29.27,0,0,1,4.28-5.21Z" transform="translate(0 0)"/><path class="cls-16" d="M30.72,71.93c-.4-.42-.8-.84-1.17-1.27L30.3,70c.36.42.74.83,1.13,1.23Z" transform="translate(0 0)"/><path class="cls-4" d="M77.24,65.63a29.31,29.31,0,0,1-6.45,8l-.65-.76a28.34,28.34,0,0,0,6.22-7.71Z" transform="translate(0 0)"/><path class="cls-24" d="M80.79,49.78c0,.59.05,1.17.05,1.77l-1,0c0-.57,0-1.14,0-1.7Z" transform="translate(0 0)"/><path class="cls-29" d="M72.29,30.9a29.44,29.44,0,0,1,4.11,5.15l-.86.52a28.21,28.21,0,0,0-4-5Z" transform="translate(0 0)"/><path class="cls-29" d="M53.52,22.41a29.17,29.17,0,0,1,6.53,1.17l-.3,1a28.08,28.08,0,0,0-6.3-1.13Z" transform="translate(0 0)"/><path class="cls-25" d="M30,32.19q-.53.6-1,1.23l-9.08-7.05c.47-.6,1-1.18,1.45-1.74Z" transform="translate(0 0)"/><path class="cls-25" d="M47.24,22.71a29.3,29.3,0,0,0-5.55,1.46l-4-10.79a40.69,40.69,0,0,1,7.8-2Z" transform="translate(0 0)"/><path class="cls-4" d="M20.6,77.36c-.36-.44-.71-.88-1-1.32L28.64,69c.24.32.49.64.74,1Z" transform="translate(0 0)"/><path class="cls-5" d="M83.23,77.45c-.31.37-.62.73-.93,1.09l-8.56-7.68.67-.78Z" transform="translate(0 0)"/><path class="cls-27" d="M69.41,14.83a41.33,41.33,0,0,1,6,3.56l-6.79,9.29a29,29,0,0,0-4.32-2.52Z" transform="translate(0 0)"/><path class="cls-27" d="M56.45,11.11c.84.09,1.68.22,2.51.36L56.85,22.79c-.59-.11-1.18-.19-1.78-.26Z" transform="translate(0 0)"/><path class="cls-14" d="M58.64,72.16a22.57,22.57,0,0,1-2.26.62L55.76,70a19.11,19.11,0,0,0,2-.54Z" transform="translate(0 0)"/><path class="cls-30" d="M46.17,69.54c.5.16,1,.29,1.53.41l-.58,2.82c-.6-.13-1.19-.29-1.76-.46Z" transform="translate(0 0)"/><path class="cls-14" d="M37.38,63.71c.23.27.47.54.72.8l-2,2c-.29-.3-.56-.61-.84-.92Z" transform="translate(0 0)"/><path class="cls-11" d="M33.86,45.71a18.92,18.92,0,0,0-.56,9.56l-2.81.65a22.1,22.1,0,0,1-.44-4.36,21.76,21.76,0,0,1,1-6.68Z" transform="translate(0 0)"/><path class="cls-6" d="M69.48,64.12a22,22,0,0,1-2.89,3.3l-1.94-2.13a19,19,0,0,0,2.5-2.87Z" transform="translate(0 0)"/><path class="cls-19" d="M73.47,52.31c0,.54-.06,1.08-.11,1.6l-2.86-.38c0-.46.08-.92.1-1.39Z" transform="translate(0 0)"/><path class="cls-31" d="M69.53,39.06a20.66,20.66,0,0,1,1.63,2.71L68.55,43a18.7,18.7,0,0,0-1.42-2.34Z" transform="translate(0 0)"/><path class="cls-31" d="M47.35,33.24A18.67,18.67,0,0,0,45,34l-1-2.69a21.26,21.26,0,0,1,2.7-.84Z" transform="translate(0 0)"/><path class="cls-31" d="M57.2,30.52a21.47,21.47,0,0,1,4.28,1.61l-1.34,2.55a18.46,18.46,0,0,0-3.7-1.37Z" transform="translate(0 0)"/><path class="cls-6" d="M29.3,69.89A29.19,29.19,0,0,1,27,66.69l2.36-1.5a27.57,27.57,0,0,0,2.07,2.89Z" transform="translate(0 0)"/><path class="cls-26" d="M34.73,31.69c-.47.4-.92.81-1.36,1.23l-2-2q.73-.71,1.5-1.37Z" transform="translate(0 0)"/><path class="cls-12" d="M73.65,70a29.45,29.45,0,0,1-3.11,3.18l-1.82-2.13a25.92,25.92,0,0,0,2.79-2.88Z" transform="translate(0 0)"/><path class="cls-7" d="M80.14,54.84Q80,56,79.8,57.06l-2.74-.59c.13-.66.23-1.33.3-2Z" transform="translate(0 0)"/><path class="cls-22" d="M77.29,38.66c.35.69.66,1.39,1,2.11l-2.61,1q-.39-1-.86-1.9Z" transform="translate(0 0)"/><path class="cls-26" d="M66.31,26.82c.61.37,1.21.76,1.79,1.17l-1.64,2.28c-.52-.37-1.06-.72-1.61-1Z" transform="translate(0 0)"/><path class="cls-26" d="M51.52,22.74c.46,0,.91,0,1.36,0l-.13,2.8c-.41,0-.82,0-1.23,0a26.17,26.17,0,0,0-5.41.57l-.6-2.74a28.91,28.91,0,0,1,6-.63" transform="translate(0 0)"/><path class="cls-12" d="M83.21,64.79q-.29.67-.6,1.34l-2.08-1c.19-.41.38-.82.56-1.25Z" transform="translate(0 0)"/><path class="cls-23" d="M82.83,37.45c.2.44.39.88.57,1.33l-2.16.83c-.17-.42-.35-.82-.54-1.23Z" transform="translate(0 0)"/><path class="cls-39" d="M68.81,22.07a34.34,34.34,0,0,1,5.6,4l-1.57,1.71a31.92,31.92,0,0,0-5.22-3.74Z" transform="translate(0 0)"/><path class="cls-18" d="M30.75,28a31.83,31.83,0,0,0-4.28,4.7L24.6,31.31a34.2,34.2,0,0,1,4.6-5.05Z" transform="translate(0 0)"/><path class="cls-18" d="M51.9,17.57a34,34,0,0,1,3.6.19l-.27,2.3a32.64,32.64,0,0,0-3.33-.17c-.53,0-1.06,0-1.58,0l-.1-2.32c.56,0,1.12,0,1.68,0" transform="translate(0 0)"/><path class="cls-42" d="M37.88,23.15l-1,.52L29.29,9.61c.51-.27,1-.54,1.54-.8Z" transform="translate(0 0)"/><path class="cls-43" d="M71.3,8q.76.34,1.51.7L67.48,19.35l-1.12-.54Z" transform="translate(0 0)"/><path class="cls-19" d="M89.14,45.8,77.56,47.42c-.06-.37-.12-.73-.19-1.09l11.56-2.13Z" transform="translate(0 0)"/><path class="cls-23" d="M76.24,19.92l.7.56L68.16,31.05l-.45-.36Z" transform="translate(0 0)"/><path class="cls-27" d="M45.89,25.63c-.43.09-.84.19-1.26.3L41,12.7c.64-.17,1.29-.33,1.94-.47Z" transform="translate(0 0)"/><path class="cls-29" d="M59.43,12.13c.67.14,1.34.29,2,.46L58,25.9q-.64-.17-1.3-.3Z" transform="translate(0 0)"/><path class="cls-18" d="M84.53,12.53q1.52,1.29,2.93,2.71l-2.1,2.09c-.88-.88-1.8-1.73-2.75-2.55Z" transform="translate(0 0)"/><path class="cls-18" d="M41.56,5.54A34.77,34.77,0,0,0,36.5,6.9l-.74-2.05A37.39,37.39,0,0,1,41.13,3.4Z" transform="translate(0 0)"/><path class="cls-12" d="M54.58,71.28A20.26,20.26,0,0,0,59.25,70l.36.9a20.82,20.82,0,0,1-4.89,1.33Z" transform="translate(0 0)"/><path class="cls-7" d="M33,58.43a19.76,19.76,0,0,0,2.13,4.19l-.79.56a20.68,20.68,0,0,1-2.25-4.39Z" transform="translate(0 0)"/><path class="cls-22" d="M35.06,40.64a19.78,19.78,0,0,0-3,8l-1-.12a20.73,20.73,0,0,1,3.19-8.4Z" transform="translate(0 0)"/><path class="cls-25" d="M44,33.17a19.38,19.38,0,0,0-3.22,1.72l-.54-.81a20.62,20.62,0,0,1,3.38-1.81Z" transform="translate(0 0)"/><path class="cls-3" d="M68.66,63.81c-.19.26-.38.51-.58.76L67.33,64c.19-.24.37-.48.55-.73Z" transform="translate(0 0)"/><path class="cls-11" d="M71.89,46a21,21,0,0,1,.67,3.85l-1,.05a19.65,19.65,0,0,0-.65-3.67Z" transform="translate(0 0)"/><path class="cls-18" d="M52,30.66a20.92,20.92,0,0,1,3,.25l-.16,1A20.1,20.1,0,0,0,52,31.63Z" transform="translate(0 0)"/><path class="cls-25" d="M74.35,13.75q1.24.75,2.43,1.57l-4.85,6.87q-1-.66-2-1.26Z" transform="translate(0 0)"/><path class="cls-25" d="M32.6,21.39c-.54.34-1.06.7-1.58,1.06L26.1,15.62c.64-.46,1.3-.9,2-1.32Z" transform="translate(0 0)"/><path class="cls-39" d="M51.66,7.46c.68,0,1.36,0,2,0l-.41,8.4c-.53,0-1.08,0-1.62,0q-1.27,0-2.51.09l-.58-8.39c1-.07,2.05-.11,3.09-.11" transform="translate(0 0)"/><path class="cls-6" d="M87.39,69.54c-.26.5-.53,1-.81,1.48l-10-5.62c.2-.35.4-.7.58-1.05Z" transform="translate(0 0)"/><path class="cls-11" d="M91.76,55.37c-.15,1.24-.35,2.46-.6,3.69L79.88,56.82c.18-.87.33-1.75.43-2.63Z" transform="translate(0 0)"/><path class="cls-24" d="M91.2,42.48c.11.56.22,1.13.31,1.7L80.17,46.11c-.06-.4-.14-.81-.22-1.22Z" transform="translate(0 0)"/><path class="cls-25" d="M93,26c-.4-.64-.8-1.26-1.23-1.89l2.46-1.64c.45.66.88,1.33,1.3,2Z" transform="translate(0 0)"/><path class="cls-19" d="M99.39,60.79v-.05c.14-.71.26-1.43.37-2.14l2.92.46c-.11.74-.24,1.5-.38,2.24l0,.08Z" transform="translate(0 0)"/><path class="cls-11" d="M90.49,64.35c-.3.91-.64,1.82-1,2.71l-7.77-3.22c.29-.72.56-1.45.8-2.19Z" transform="translate(0 0)"/><path class="cls-22" d="M91.64,40.83q.22,1,.4,2l-8.28,1.45c-.1-.53-.2-1.06-.32-1.59-.18-.83-.4-1.63-.63-2.43l8.05-2.41c.29,1,.56,2,.79,3" transform="translate(0 0)"/><path class="cls-3" d="M66.25,58a15.4,15.4,0,0,0,1-2.91l2.28.59A18.16,18.16,0,0,1,68.37,59Z" transform="translate(0 0)"/><path class="cls-21" d="M69.89,49.72c0,.33.06.66.07,1l-2.36,0c0-.28,0-.57-.07-.85Z" transform="translate(0 0)"/><path class="cls-11" d="M67.55,42.5a17.91,17.91,0,0,1,1.17,2.42l-2.22.8a15.71,15.71,0,0,0-1-2.09Z" transform="translate(0 0)"/><path class="cls-19" d="M63.07,62.61c.29-.29.57-.6.84-.91l1.77,1.56c-.31.36-.63.71-1,1Z" transform="translate(0 0)"/><path class="cls-4" d="M54.79,67c.46-.09.91-.19,1.36-.31l.63,2.27c-.51.14-1,.27-1.56.36Z" transform="translate(0 0)"/><path class="cls-14" d="M44.63,65.45a15.36,15.36,0,0,0,2.16.94l-.73,2.25a17.43,17.43,0,0,1-2.48-1.07Z" transform="translate(0 0)"/><path class="cls-14" d="M37.55,57.84a15.12,15.12,0,0,0,1.22,2.27l-1.94,1.35a18.08,18.08,0,0,1-1.42-2.6Z" transform="translate(0 0)"/><path class="cls-3" d="M36.92,47a16.06,16.06,0,0,0-.5,2.14l-2.34-.3a18.22,18.22,0,0,1,.56-2.47Z" transform="translate(0 0)"/><path class="cls-23" d="M42.2,39.24a15.13,15.13,0,0,0-1.34,1.19l-1.7-1.64a18.43,18.43,0,0,1,1.55-1.38Z" transform="translate(0 0)"/><path class="cls-23" d="M51.26,35.88a15.83,15.83,0,0,0-2.2.25l-.43-2.32a17.59,17.59,0,0,1,2.55-.29Z" transform="translate(0 0)"/><path class="cls-23" d="M62.71,37.07a17.28,17.28,0,0,1,1.85,1.59L62.87,40.3a16.68,16.68,0,0,0-1.61-1.37Z" transform="translate(0 0)"/><path class="cls-23" d="M56.35,32.72a19.8,19.8,0,0,0-2.61-.43L53,32.24l0-.8.81.06a20.69,20.69,0,0,1,2.7.44Z" transform="translate(0 0)"/><path class="cls-22" d="M69,42.42a19.44,19.44,0,0,0-5.41-6.31l.47-.64A20.27,20.27,0,0,1,69.66,42Z" transform="translate(0 0)"/><path class="cls-18" d="M38.58,36.45a20.2,20.2,0,0,1,6.09-3.7l.3.73A19.49,19.49,0,0,0,39.12,37Z" transform="translate(0 0)"/><path class="cls-31" d="M32.89,44.91a20,20,0,0,1,3.94-6.7l.6.52a19.3,19.3,0,0,0-3.78,6.44Z" transform="translate(0 0)"/><path class="cls-21" d="M31.76,51.53q0-.94.09-1.89a19.4,19.4,0,0,1,.36-2.33l.78.17a20.09,20.09,0,0,0-.35,2.24c-.06.61-.08,1.21-.08,1.81Z" transform="translate(0 0)"/><path class="cls-3" d="M37.08,65.19a20.6,20.6,0,0,1-2.72-3.75l.7-.38a19.32,19.32,0,0,0,2.62,3.6Z" transform="translate(0 0)"/><path class="cls-6" d="M54.74,71.5a20.52,20.52,0,0,1-4.74.11l-.49-.06.12-.78.45,0a19.73,19.73,0,0,0,4.57-.1Z" transform="translate(0 0)"/><path class="cls-15" d="M69.31,61.7a20.35,20.35,0,0,1-2.51,3.42l-.58-.55a19.21,19.21,0,0,0,2.41-3.28Z" transform="translate(0 0)"/><path class="cls-22" d="M72,53.46c0,.15,0,.31,0,.47l-.79-.1.05-.44a19.7,19.7,0,0,0,0-3.44l.79-.06a20.61,20.61,0,0,1,0,3.58" transform="translate(0 0)"/><path class="cls-27" d="M90.14,33.11q-.6-1.25-1.29-2.47l-10.1,5.7c.31.55.6,1.1.88,1.67Z" transform="translate(0 0)"/><path class="cls-8" d="M86.46,31.13l3.94-2.26q-.66-1.13-1.38-2.21l-3.86,2.53c.45.63.88,1.28,1.3,1.94" transform="translate(0 0)"/><path class="cls-19" d="M90.6,60.68l4.45.93c-.18.85-.39,1.69-.62,2.53L90,62.94c.24-.75.44-1.5.63-2.26" transform="translate(0 0)"/><path class="cls-6" d="M96.26,56.19a46.34,46.34,0,0,0,.28-5.73l-3.28-.09A43.65,43.65,0,0,1,93,55.72Z" transform="translate(0 0)"/><path class="cls-25" d="M66.35,6q-1.45-.5-2.94-.91l-1,3.65q1.35.37,2.69.83Z" transform="translate(0 0)"/><path class="cls-23" d="M20.18,33.91l-.41.79L32,40.88c.08-.17.17-.34.27-.51Z" transform="translate(0 0)"/><path class="cls-23" d="M30.32,20l-.73.52,8.1,11.08.47-.33Z" transform="translate(0 0)"/><path class="cls-44" d="M268.79,95.11H247l-.9,7.21H242V90.22h3.77a16,16,0,0,0,1.08-2,25,25,0,0,0,1.5-4.46,61.92,61.92,0,0,0,1.31-7.22,95.32,95.32,0,0,0,.69-10.32v-.45h19V90.22h4.38v12.11h-4.11Zm-5.1-4.89V70.69h-8.1c-.09,1.6-.23,3.19-.4,4.79q-.3,2.84-.82,5.65a45.14,45.14,0,0,1-1.3,5.37,25.19,25.19,0,0,1-1.48,3.72Z" transform="translate(0 0)"/><path class="cls-44" d="M213.21,80c0-4,.77-8.26,3.5-11.35s6.25-4,10.1-4a15.55,15.55,0,0,1,6,1.09,11,11,0,0,1,4.28,3.14,13.28,13.28,0,0,1,2.49,4.88,22.9,22.9,0,0,1,.79,6.23c0,4-.77,8.25-3.5,11.35s-6.25,4-10.09,4a15.42,15.42,0,0,1-6-1.09,11,11,0,0,1-4.29-3.14A13.23,13.23,0,0,1,214,86.27a22.93,22.93,0,0,1-.8-6.23m5.9,0a18.19,18.19,0,0,0,.44,4,10,10,0,0,0,1.35,3.32,7,7,0,0,0,2.36,2.24,7.08,7.08,0,0,0,3.55.84c6.26,0,7.7-5,7.7-10.44a18.66,18.66,0,0,0-.44-4.1,10.11,10.11,0,0,0-1.35-3.32,6.63,6.63,0,0,0-2.36-2.2,7.21,7.21,0,0,0-3.55-.82c-6.26,0-7.7,5-7.7,10.44" transform="translate(0 0)"/><path class="cls-44" d="M188.19,68a8.84,8.84,0,0,1,3.35-2.41,11.88,11.88,0,0,1,5.21-1.09c3.46,0,6.92.81,9.28,3.51,2.55,2.9,3.05,7.56,3.05,11.26a20.21,20.21,0,0,1-1,6.6,14.43,14.43,0,0,1-2.88,5,12.69,12.69,0,0,1-4.51,3.18,13.35,13.35,0,0,1-5.51,1.14c-1.55,0-5.12.07-6.17-1.22v11.88h-5.72V65.2h4.5Zm.9,6.37L189,87.12a2.71,2.71,0,0,0,2.09,2.77,12.57,12.57,0,0,0,3.52.41,7.64,7.64,0,0,0,6.21-2.76c1.87-2.25,2.32-5.48,2.32-8.31a19.11,19.11,0,0,0-.41-4.13A8.58,8.58,0,0,0,201.5,72a6,6,0,0,0-2.23-1.92,7.7,7.7,0,0,0-3.42-.69c-3.34,0-6.62,1.77-6.75,5" transform="translate(0 0)"/><path class="cls-44" d="M150.19,80c0-4,.77-8.26,3.5-11.35s6.25-4,10.09-4a15.56,15.56,0,0,1,6,1.09,11,11,0,0,1,4.28,3.14,13.23,13.23,0,0,1,2.48,4.88,22.83,22.83,0,0,1,.8,6.23c0,4-.77,8.26-3.51,11.35s-6.25,4-10.09,4a15.44,15.44,0,0,1-6-1.09,11,11,0,0,1-4.28-3.14A13.21,13.21,0,0,1,151,86.27a23,23,0,0,1-.8-6.23m5.9,0a18.23,18.23,0,0,0,.44,4,10.1,10.1,0,0,0,1.35,3.32,6.65,6.65,0,0,0,5.92,3.08c6.26,0,7.69-5,7.69-10.44a18.72,18.72,0,0,0-.44-4.1,10.19,10.19,0,0,0-1.35-3.32,6.67,6.67,0,0,0-2.36-2.2,7.21,7.21,0,0,0-3.55-.82c-6.26,0-7.7,5-7.7,10.44" transform="translate(0 0)"/><polygon class="cls-44" points="132.38 64.42 132.38 95.11 125.19 95.11 125.19 58.26 148.37 58.26 148.37 64.42 132.38 64.42"/><path class="cls-44" d="M294.88,8.43a5.49,5.49,0,0,0,1.88,3.36,5.33,5.33,0,0,0,3.12.94,5.26,5.26,0,0,0,3.15-1,5.3,5.3,0,0,0,1.86-3.25L305,8l4.46,1.34-.07.4a7.76,7.76,0,0,1-3.28,5.36,10.94,10.94,0,0,1-6.35,1.84,13.82,13.82,0,0,1-3.32-.41,10.41,10.41,0,0,1-3-1.25,8.32,8.32,0,0,1-2.28-2.17A7.58,7.58,0,0,1,289.9,10l-.07-.39,4.93-1.65Z" transform="translate(0 0)"/><polygon class="cls-44" points="305.9 29.4 304.15 31.98 290.51 48.86 287.07 48.86 287.07 19.54 292.79 19.54 292.79 37.34 292.68 39.41 294.36 36.88 308 19.54 311.51 19.54 311.51 48.86 305.79 48.86 305.79 31.58 305.9 29.4"/><rect class="cls-45" x="273.83" y="19.54" width="5.72" height="29.32"/><path class="cls-44" d="M254,30.32c.75-.1,1.51-.19,2.27-.24S258,30,258.81,30a17.65,17.65,0,0,1,5.26.68,9.39,9.39,0,0,1,3.5,1.88,6.62,6.62,0,0,1,1.9,2.9,11.13,11.13,0,0,1,.53,3.47c0,3-.74,6-3.21,7.86-2.66,2-6.85,2.43-10.09,2.43-2.67,0-5.35-.12-8-.34l-.42,0V19.54H254ZM254,44a27.42,27.42,0,0,0,3.79.28c1.53,0,3.78-.17,5-1.27a4.71,4.71,0,0,0,1.35-3.61A4.65,4.65,0,0,0,262.77,36c-1.14-1.15-3.28-1.34-4.8-1.34-.73,0-1.47,0-2.2.06A9.62,9.62,0,0,0,254,35Z" transform="translate(0 0)"/><polygon class="cls-44" points="235.49 36.31 222.85 36.31 222.85 48.86 217.13 48.86 217.13 19.54 222.85 19.54 222.85 31.41 235.49 31.41 235.49 19.54 241.2 19.54 241.2 48.86 235.49 48.86 235.49 36.31"/><polygon class="cls-44" points="188.16 35.95 179.66 48.86 173 48.86 182.19 35.99 184.56 33.73 182.03 31.86 173.69 19.54 179.9 19.54 188.19 31.85 190.07 31.85 190.07 19.54 195.66 19.54 195.66 31.84 197.71 31.85 206.12 19.54 212.29 19.54 203.67 31.84 201.4 33.74 203.81 35.96 213.46 48.86 206.64 48.86 197.75 35.95 195.66 35.95 195.66 48.86 190.07 48.86 190.07 35.94 188.16 35.95"/><path class="cls-44" d="M137.23,33.12H130.8V48.89h-7.19V12h7.19V27h6.51c.4-4.17,1.6-8.4,4.52-11.52s7.44-4.25,11.77-4.25a17.64,17.64,0,0,1,7.29,1.37,12.71,12.71,0,0,1,5,4,16.72,16.72,0,0,1,2.78,6.14,33.69,33.69,0,0,1,.84,7.81c0,4.89-.81,10.3-3.93,14.24s-7.44,5-12.1,5a19.18,19.18,0,0,1-7.19-1.22,12.58,12.58,0,0,1-5-3.52,15.22,15.22,0,0,1-2.91-5.49,29.74,29.74,0,0,1-1.15-6.41m7.07-2.65a29.35,29.35,0,0,0,.44,5.18,12.55,12.55,0,0,0,1.51,4.19,7.53,7.53,0,0,0,2.84,2.75,9.26,9.26,0,0,0,4.51,1c2.63,0,5-.76,6.45-3.05,1.72-2.71,2-7,2-10.08a31.38,31.38,0,0,0-.41-5.19,12.8,12.8,0,0,0-1.41-4.21,7.35,7.35,0,0,0-2.58-2.75,7.9,7.9,0,0,0-4.15-1c-2.75,0-5.4.72-7,3.07-1.86,2.68-2.2,6.9-2.2,10.06" transform="translate(0 0)"/><line class="cls-46" x1="55.22" y1="0.52" x2="55.22"/><line class="cls-46" x1="108.41" y1="71.07" x2="108.41" y2="70.54"/><polyline class="cls-46" points="128.53 34.84 128.53 35.36 128 35.36"/><polyline class="cls-46" points="12.83 35.36 12.31 35.36 12.31 34.84"/><polyline class="cls-46" points="128 0.53 128.53 0.53 128.53 1.05"/><line class="cls-47" x1="128.53" y1="2.07" x2="128.53" y2="34.33"/><polyline class="cls-46" points="118.1 69.46 118.1 69.99 117.58 69.99"/><polyline class="cls-46" points="70.94 69.99 70.42 69.99 70.42 69.46"/><line class="cls-48" x1="70.42" y1="68.44" x2="70.42" y2="40.47"/><polyline class="cls-46" points="70.42 39.96 70.42 39.44 70.94 39.44"/><polyline class="cls-46" points="117.58 39.44 118.1 39.44 118.1 39.96"/><line class="cls-46" x1="52.07" y1="94.93" x2="52.07" y2="94.4"/><polyline class="cls-46" points="67.28 100.29 67.28 100.82 66.75 100.82"/><polyline class="cls-46" points="14.6 100.82 14.08 100.82 14.08 100.29"/><polyline class="cls-46" points="14.08 70.79 14.08 70.27 14.6 70.27"/><line class="cls-49" x1="15.67" y1="70.27" x2="66.22" y2="70.27"/><polyline class="cls-46" points="66.75 70.27 67.28 70.27 67.28 70.79"/><line class="cls-48" x1="67.28" y1="71.81" x2="67.28" y2="99.79"/></g></svg>